<svg xmlns="http://www.w3.org/2000/svg" viewBox="0 0 1669.79 444.12"><defs><style>.cls-1,.cls-2{fill:#212529;}.cls-2{font-size:98.63px;font-family:Satoshi-Regular, Satoshi;}.cls-3{letter-spacing:-0.03em;}.cls-4{letter-spacing:0em;}.cls-5{letter-spacing:-0.04em;}.cls-6{letter-spacing:-0.03em;}</style></defs><g id="Capa_2" data-name="Capa 2"><g id="Capa_1-2" data-name="Capa 1"><path class="cls-1" d="M209,86.7q-11.85,0-19.53-8.14a27.59,27.59,0,0,1-7.7-19.68,27.11,27.11,0,0,1,7.7-19.53q7.7-8,19.53-8a25.62,25.62,0,0,1,19.23,8,27.1,27.1,0,0,1,7.69,19.53,27.59,27.59,0,0,1-7.69,19.68A25.35,25.35,0,0,1,209,86.7ZM182.64,248V103.27h51.78V248Z" transform="translate(0 -31.36)"/><path class="cls-1" d="M264.31,248V32.25h51.78V248Z" transform="translate(0 -31.36)"/><path class="cls-1" d="M417.29,251.52q-23.09,0-41.43-10.06A75.56,75.56,0,0,1,347,214.08a72.91,72.91,0,0,1-10.51-38.61q0-21.9,10.51-38.91a75.2,75.2,0,0,1,28.85-26.93Q394.2,99.72,417,99.72q23.67,0,41.87,9.91a75.48,75.48,0,0,1,28.7,26.93q10.5,17,10.51,38.91a73.74,73.74,0,0,1-39.06,66Q440.65,251.51,417.29,251.52Zm-.3-46.16a29.15,29.15,0,0,0,15.09-3.85A26.42,26.42,0,0,0,442.14,191a32.45,32.45,0,0,0,3.55-15.53,31.45,31.45,0,0,0-3.7-15.54,26.77,26.77,0,0,0-10.06-10.35,29.15,29.15,0,0,0-14.94-3.7,27.12,27.12,0,0,0-14.35,3.85,27.67,27.67,0,0,0-10.06,10.5,31.45,31.45,0,0,0-3.7,15.54,30.75,30.75,0,0,0,3.7,15.23,27.69,27.69,0,0,0,10.06,10.51A27.21,27.21,0,0,0,417,205.36Z" transform="translate(0 -31.36)"/><path class="cls-1" d="M616.42,248.26l-58-145h55l35.81,119.25h-21.9l35.81-119.25h55L658.74,248ZM582.1,309.51l42.61-94.39,34,32.85-24.86,61.54Z" transform="translate(0 -31.36)"/><path class="cls-1" d="M787.75,248V103.27h51.78V248Zm90.84,0V164.23q0-9.18-5.48-14.21a19.56,19.56,0,0,0-13.76-5,23.09,23.09,0,0,0-10.2,2.22,16,16,0,0,0-7.11,6.66,21.35,21.35,0,0,0-2.51,10.65l-19.83-8.28q0-17.46,7.55-30A50.19,50.19,0,0,1,847.81,107a63.41,63.41,0,0,1,29.3-6.66,53,53,0,0,1,27.07,7,51.45,51.45,0,0,1,19.09,19.39q7.1,12.42,7.1,29.29v92Zm91.14,0V164.23q0-9.18-5.63-14.21a20.1,20.1,0,0,0-13.9-5A23.1,23.1,0,0,0,940,147.21a15.94,15.94,0,0,0-7.1,6.66,21.24,21.24,0,0,0-2.52,10.65l-29.88-1.77q.28-19.53,8.28-33.44a54.9,54.9,0,0,1,22.05-21.45q14-7.55,31.8-7.55,17.16,0,30.19,7.1A53.59,53.59,0,0,1,1013.67,128q7.83,13.47,7.84,32.1V248Z" transform="translate(0 -31.36)"/><path class="cls-1" d="M1121.23,251.52q-24.57,0-43.2-9.77a73.15,73.15,0,0,1-29.15-26.93q-10.5-17.15-10.5-39,0-22.2,10.2-39.21a73.61,73.61,0,0,1,28.26-26.93q18-9.91,40.54-9.91,21.9,0,38.91,9.32a68.18,68.18,0,0,1,26.63,25.74q9.61,16.42,9.62,37.73a69.2,69.2,0,0,1-.59,8.73q-.6,4.59-1.78,10.5l-127.53.6V159.19l107.12-.59-23.08,14.21q-.3-11.84-3.56-19.83a24.82,24.82,0,0,0-9.46-12q-6.23-4-15.69-4a30.61,30.61,0,0,0-16.72,4.59,29.18,29.18,0,0,0-11.09,13.31q-3.86,8.74-3.85,20.57,0,12.72,4.14,21.3a28.35,28.35,0,0,0,11.84,12.88q7.7,4.29,18.94,4.29a48.67,48.67,0,0,0,18.64-3.41,39.71,39.71,0,0,0,14.8-10.8l27.22,26.63a73.52,73.52,0,0,1-26.49,18.79Q1140.16,251.51,1121.23,251.52Z" transform="translate(0 -31.36)"/><path class="cls-1" d="M1273.91,250.92q-20.72,0-36.84-9.76a67.74,67.74,0,0,1-25.15-26.78q-9-17-9-38.91,0-21.6,9-38.76a66.83,66.83,0,0,1,25-26.78q16-9.62,37-9.62a66.93,66.93,0,0,1,25.74,4.88A53.94,53.94,0,0,1,1319.48,119a36.79,36.79,0,0,1,9.47,20.12v70.72a39.29,39.29,0,0,1-9.47,20.87,57.6,57.6,0,0,1-19.83,14.79A60.55,60.55,0,0,1,1273.91,250.92Zm9.47-45.86a27.74,27.74,0,0,0,14.65-3.85,27.07,27.07,0,0,0,9.91-10.35,31.64,31.64,0,0,0,3.55-15.39,32.22,32.22,0,0,0-3.4-15.09,26,26,0,0,0-9.77-10.36,29.78,29.78,0,0,0-29.29,0,28.92,28.92,0,0,0-10.21,10.51,29.25,29.25,0,0,0-3.85,14.94,30.82,30.82,0,0,0,3.7,15.24,27.39,27.39,0,0,0,10.21,10.5A27.91,27.91,0,0,0,1283.38,205.06ZM1360.61,248h-50.9V208.91l7.4-34.92-8.28-35.21V32.25h51.78Z" transform="translate(0 -31.36)"/><path class="cls-1" d="M1416.24,86.7q-11.85,0-19.53-8.14a27.59,27.59,0,0,1-7.7-19.68,27.11,27.11,0,0,1,7.7-19.53q7.68-8,19.53-8a25.62,25.62,0,0,1,19.23,8,27.1,27.1,0,0,1,7.69,19.53,27.59,27.59,0,0,1-7.69,19.68A25.35,25.35,0,0,1,1416.24,86.7ZM1389.9,248V103.27h51.78V248Z" transform="translate(0 -31.36)"/><path class="cls-1" d="M1542.88,251.52q-23.09,0-41.42-10.06a75.52,75.52,0,0,1-28.86-27.38,73,73,0,0,1-10.5-38.61q0-21.9,10.5-38.91a75.16,75.16,0,0,1,28.86-26.93q18.33-9.91,41.12-9.91,23.68,0,41.88,9.91a75.56,75.56,0,0,1,28.7,26.93q10.5,17,10.5,38.91a73.79,73.79,0,0,1-10.35,38.61,74.54,74.54,0,0,1-28.71,27.38Q1566.26,251.51,1542.88,251.52Zm-.3-46.16a29.21,29.21,0,0,0,15.1-3.85A26.49,26.49,0,0,0,1567.74,191a32.57,32.57,0,0,0,3.55-15.53,31.55,31.55,0,0,0-3.7-15.54,26.84,26.84,0,0,0-10.06-10.35,29.21,29.21,0,0,0-15-3.7,27.15,27.15,0,0,0-14.35,3.85,27.82,27.82,0,0,0-10.06,10.5,31.45,31.45,0,0,0-3.7,15.54,30.75,30.75,0,0,0,3.7,15.23,27.84,27.84,0,0,0,10.06,10.51A27.24,27.24,0,0,0,1542.58,205.36Z" transform="translate(0 -31.36)"/><path class="cls-1" d="M4.37,32.73V247.14l47.68.05c-.53-12.66-.93-26.06,1.46-38.56a15.38,15.38,0,0,1,3.24-7.2,5.49,5.49,0,0,1,3.24-2,7.22,7.22,0,0,1,3.45.56,26.26,26.26,0,0,1,15,13.6c2.92,6.09,4.28,10.7,7.6,16.62,6.67,11.85,17.92,16.63,31,17.52,15.72,1.06,41.07-1.79,40.35-23-.12-3.45-1.14-4.76-3.12-7.59-2.4-3.41-6-5.72-9.49-8l-.87-.56c-13.26-8.7-26.4-18-38.27-28.49-4.71-4.14-14.93-11.49-17.34-17.29a1.54,1.54,0,0,1-.17-.91,1.58,1.58,0,0,1,.83-.86c20.44-12.2,44.92-32.24,57.44-52.68,3.55-5.81,8.12-12.19,9.32-19.05a9.4,9.4,0,0,0-6.62-11.44C136.88,73.61,120.69,76,109.48,82,99.93,87.2,93,96,86.38,104.62l-31,40.13c-.49.63-1.12,1.33-1.91,1.25-1.15-.12-1.45-1.63-1.45-2.79V32.73" transform="translate(0 -31.36)"/><text class="cls-2" transform="translate(0 393.25)">TIEN<tspan class="cls-3" x="204.27" y="0">D</tspan><tspan x="271.14" y="0">A DE P</tspan><tspan class="cls-4" x="576.31" y="0">R</tspan><tspan x="639.04" y="0">ODU</tspan><tspan class="cls-5" x="852.88" y="0">C</tspan><tspan class="cls-6" x="920.84" y="0">T</tspan><tspan x="971.24" y="0">OS A GRANEL</tspan></text></g></g></svg>