<?xml version="1.0" encoding="UTF-8" standalone="no"?>
<svg
   viewBox="0 0 278.14999 278.15"
   version="1.1"
   id="svg28"
   sodipodi:docname="logo sin subtitulo.svg"
   inkscape:version="1.2.1 (9c6d41e410, 2022-07-14, custom)"
   width="278.14999"
   height="278.14999"
   xmlns:inkscape="http://www.inkscape.org/namespaces/inkscape"
   xmlns:sodipodi="http://sodipodi.sourceforge.net/DTD/sodipodi-0.dtd"
   xmlns="http://www.w3.org/2000/svg"
   xmlns:svg="http://www.w3.org/2000/svg">
  <sodipodi:namedview
     id="namedview30"
     pagecolor="#ffffff"
     bordercolor="#000000"
     borderopacity="0.25"
     inkscape:showpageshadow="2"
     inkscape:pageopacity="0.0"
     inkscape:pagecheckerboard="0"
     inkscape:deskcolor="#d1d1d1"
     showgrid="false"
     inkscape:zoom="1.3404506"
     inkscape:cx="420.75404"
     inkscape:cy="228.28145"
     inkscape:window-width="1908"
     inkscape:window-height="1068"
     inkscape:window-x="0"
     inkscape:window-y="0"
     inkscape:window-maximized="1"
     inkscape:current-layer="Capa_1-2"
     showguides="false" />
  <defs
     id="defs4">
    <style
       id="style2">.cls-1{fill:#212529;}</style>
  </defs>
  <g
     id="Capa_2"
     data-name="Capa 2">
    <g
       id="Capa_1-2"
       data-name="Capa 1">
      <path
         class="cls-1"
         d="M 62.480406,27.140625 V 241.55063 l 47.680004,0.05 c -0.53,-12.66 -0.92,-26.06 1.46,-38.56 a 15.48,15.48 0 0 1 3.24,-7.2 5.52,5.52 0 0 1 3.24,-2 7.26,7.26 0 0 1 3.46,0.56 26.24,26.24 0 0 1 15,13.6 c 2.92,6.09 4.28,10.7 7.6,16.62 6.67,11.85 17.93,16.63 31,17.52 15.73,1.06 41.07,-1.79 40.35,-23 -0.12,-3.45 -1.14,-4.76 -3.12,-7.59 -2.4,-3.41 -6,-5.72 -9.49,-8 l -0.87,-0.56 c -13.26,-8.7 -26.39,-18 -38.27,-28.49 -4.73,-4.09 -14.94,-11.44 -17.35,-17.24 a 1.54,1.54 0 0 1 -0.17,-0.91 1.58,1.58 0 0 1 0.83,-0.86 c 20.44,-12.2 44.92,-32.24 57.44,-52.68001 3.56,-5.809999 8.12,-12.189999 9.32,-19.049995 a 9.4,9.4 0 0 0 -6.61,-11.44 c -12.19,-4.3 -28.42,-1.91 -39.63,4.09 -9.56,5.2 -16.46,13.999996 -23.1,22.619996 l -31,40.130009 c -0.49,0.63 -1.12,1.33 -1.91,1.25 -1.15,-0.12 -1.45,-1.63 -1.45,-2.79 V 27.140625"
         id="path24" />
    </g>
  </g>
</svg>
