<?xml version="1.0" encoding="UTF-8" standalone="no"?>
<svg
   viewBox="0 0 1619.29 278.15"
   version="1.1"
   id="svg28"
   sodipodi:docname="logo sin subtitulo.svg"
   inkscape:version="1.2.1 (9c6d41e410, 2022-07-14, custom)"
   xmlns:inkscape="http://www.inkscape.org/namespaces/inkscape"
   xmlns:sodipodi="http://sodipodi.sourceforge.net/DTD/sodipodi-0.dtd"
   xmlns="http://www.w3.org/2000/svg"
   xmlns:svg="http://www.w3.org/2000/svg">
  <sodipodi:namedview
     id="namedview30"
     pagecolor="#ffffff"
     bordercolor="#000000"
     borderopacity="0.25"
     inkscape:showpageshadow="2"
     inkscape:pageopacity="0.0"
     inkscape:pagecheckerboard="0"
     inkscape:deskcolor="#d1d1d1"
     showgrid="false"
     inkscape:zoom="0.84110935"
     inkscape:cx="809.64502"
     inkscape:cy="139.10201"
     inkscape:window-width="1908"
     inkscape:window-height="1068"
     inkscape:window-x="0"
     inkscape:window-y="0"
     inkscape:window-maximized="1"
     inkscape:current-layer="svg28" />
  <defs
     id="defs4">
    <style
       id="style2">.cls-1{fill:#212529;}</style>
  </defs>
  <g
     id="Capa_2"
     data-name="Capa 2"
     style="fill:#ffffff">
    <g
       id="Capa_1-2"
       data-name="Capa 1"
       style="fill:#ffffff">
      <path
         class="cls-1"
         d="M205.06,86.7q-11.84,0-19.53-8.14a27.59,27.59,0,0,1-7.69-19.68,27.1,27.1,0,0,1,7.69-19.53q7.69-8,19.53-8a25.62,25.62,0,0,1,19.23,8A27.11,27.11,0,0,1,232,58.88a27.59,27.59,0,0,1-7.7,19.68A25.35,25.35,0,0,1,205.06,86.7ZM178.72,248V103.27h51.79V248Z"
         transform="translate(-0.45 -31.36)"
         id="path6"
         style="fill:#ffffff" />
      <path
         class="cls-1"
         d="M260.39,248V32.25h51.78V248Z"
         transform="translate(-0.45 -31.36)"
         id="path8"
         style="fill:#ffffff" />
      <path
         class="cls-1"
         d="M413.37,251.52q-23.08,0-41.43-10.06a75.56,75.56,0,0,1-28.85-27.38,73,73,0,0,1-10.5-38.61q0-21.9,10.5-38.91a75.2,75.2,0,0,1,28.85-26.93q18.35-9.91,41.13-9.91,23.67,0,41.87,9.91a75.48,75.48,0,0,1,28.7,26.93q10.5,17,10.51,38.91a73.74,73.74,0,0,1-39.06,66Q436.75,251.51,413.37,251.52Zm-.3-46.16a29.15,29.15,0,0,0,15.09-3.85A26.35,26.35,0,0,0,438.22,191a32.45,32.45,0,0,0,3.55-15.53,31.55,31.55,0,0,0-3.69-15.54A26.91,26.91,0,0,0,428,149.58a29.21,29.21,0,0,0-14.95-3.7,27.15,27.15,0,0,0-14.35,3.85,27.74,27.74,0,0,0-10.06,10.5,31.45,31.45,0,0,0-3.7,15.54,30.75,30.75,0,0,0,3.7,15.23,27.77,27.77,0,0,0,10.06,10.51A27.24,27.24,0,0,0,413.07,205.36Z"
         transform="translate(-0.45 -31.36)"
         id="path10"
         style="fill:#ffffff" />
      <path
         class="cls-1"
         d="M612.51,248.26l-58-145h55l35.8,119.25h-21.9l35.81-119.25h55L654.82,248Zm-34.33,61.25,42.61-94.39,34,32.85L630,309.51Z"
         transform="translate(-0.45 -31.36)"
         id="path12"
         style="fill:#ffffff" />
      <path
         class="cls-1"
         d="M783.83,248V103.27h51.78V248Zm90.84,0V164.23q0-9.18-5.47-14.21a19.6,19.6,0,0,0-13.76-5,23.1,23.1,0,0,0-10.21,2.22,15.94,15.94,0,0,0-7.1,6.66,21.24,21.24,0,0,0-2.52,10.65l-19.82-8.28q0-17.46,7.54-30A50.16,50.16,0,0,1,843.9,107a63.34,63.34,0,0,1,29.29-6.66,53,53,0,0,1,27.08,7,51.49,51.49,0,0,1,19.08,19.39q7.11,12.42,7.1,29.29v92Zm91.14,0V164.23q0-9.18-5.62-14.21a20.13,20.13,0,0,0-13.91-5,23.13,23.13,0,0,0-10.21,2.22,15.94,15.94,0,0,0-7.1,6.66,21.24,21.24,0,0,0-2.52,10.65l-29.88-1.77q.28-19.53,8.28-33.44a54.9,54.9,0,0,1,22-21.45q14-7.55,31.81-7.55,17.14,0,30.18,7.1A53.59,53.59,0,0,1,1009.75,128q7.83,13.47,7.84,32.1V248Z"
         transform="translate(-0.45 -31.36)"
         id="path14"
         style="fill:#ffffff" />
      <path
         class="cls-1"
         d="M1117.31,251.52q-24.57,0-43.2-9.77A73.15,73.15,0,0,1,1045,214.82q-10.5-17.15-10.5-39,0-22.2,10.21-39.21a73.52,73.52,0,0,1,28.25-26.93q18-9.91,40.54-9.91,21.9,0,38.91,9.32A68.21,68.21,0,0,1,1179,134.78q9.6,16.42,9.61,37.73a69.2,69.2,0,0,1-.59,8.73q-.6,4.59-1.78,10.5l-127.53.6V159.19l107.12-.59-23.08,14.21q-.3-11.84-3.55-19.83a24.9,24.9,0,0,0-9.47-12q-6.23-4-15.69-4a30.55,30.55,0,0,0-16.71,4.59,29.14,29.14,0,0,0-11.1,13.31q-3.85,8.74-3.85,20.57,0,12.72,4.15,21.3a28.33,28.33,0,0,0,11.83,12.88q7.7,4.29,18.94,4.29a48.64,48.64,0,0,0,18.64-3.41,39.71,39.71,0,0,0,14.8-10.8L1178,226.36a73.57,73.57,0,0,1-26.48,18.79A88,88,0,0,1,1117.31,251.52Z"
         transform="translate(-0.45 -31.36)"
         id="path16"
         style="fill:#ffffff" />
      <path
         class="cls-1"
         d="M1270,250.92q-20.71,0-36.84-9.76A67.74,67.74,0,0,1,1208,214.38q-9-17-9-38.91,0-21.6,9-38.76a66.83,66.83,0,0,1,25-26.78q16-9.62,37-9.62a66.93,66.93,0,0,1,25.74,4.88A53.94,53.94,0,0,1,1315.56,119a36.72,36.72,0,0,1,9.47,20.12v70.72a39.21,39.21,0,0,1-9.47,20.87,57.6,57.6,0,0,1-19.83,14.79A60.55,60.55,0,0,1,1270,250.92Zm9.47-45.86a27.74,27.74,0,0,0,14.65-3.85,27,27,0,0,0,9.91-10.35,31.64,31.64,0,0,0,3.55-15.39,32.22,32.22,0,0,0-3.4-15.09A26,26,0,0,0,1294.4,150a29.78,29.78,0,0,0-29.29,0,28.92,28.92,0,0,0-10.21,10.51,29.25,29.25,0,0,0-3.85,14.94,30.82,30.82,0,0,0,3.7,15.24,27.46,27.46,0,0,0,10.21,10.5A27.91,27.91,0,0,0,1279.46,205.06ZM1356.69,248H1305.8V208.91l7.39-34.92-8.28-35.21V32.25h51.78Z"
         transform="translate(-0.45 -31.36)"
         id="path18"
         style="fill:#ffffff" />
      <path
         class="cls-1"
         d="M1412.32,86.7q-11.83,0-19.53-8.14a27.59,27.59,0,0,1-7.69-19.68,27.1,27.1,0,0,1,7.69-19.53q7.7-8,19.53-8a25.62,25.62,0,0,1,19.23,8,27.11,27.11,0,0,1,7.7,19.53,27.59,27.59,0,0,1-7.7,19.68A25.35,25.35,0,0,1,1412.32,86.7ZM1386,248V103.27h51.79V248Z"
         transform="translate(-0.45 -31.36)"
         id="path20"
         style="fill:#ffffff" />
      <path
         class="cls-1"
         d="M1539,251.52q-23.07,0-41.42-10.06a75.49,75.49,0,0,1-28.85-27.38,72.91,72.91,0,0,1-10.51-38.61q0-21.9,10.51-38.91a75.13,75.13,0,0,1,28.85-26.93q18.35-9.91,41.13-9.91,23.67,0,41.87,9.91a75.56,75.56,0,0,1,28.7,26.93q10.5,17,10.5,38.91a73.79,73.79,0,0,1-10.35,38.61,74.54,74.54,0,0,1-28.71,27.38Q1562.34,251.51,1539,251.52Zm-.29-46.16a29.15,29.15,0,0,0,15.09-3.85A26.49,26.49,0,0,0,1563.82,191a32.45,32.45,0,0,0,3.55-15.53,31.55,31.55,0,0,0-3.7-15.54,26.84,26.84,0,0,0-10.06-10.35,29.15,29.15,0,0,0-14.94-3.7,27.18,27.18,0,0,0-14.36,3.85,27.82,27.82,0,0,0-10.06,10.5,31.55,31.55,0,0,0-3.69,15.54,30.85,30.85,0,0,0,3.69,15.23,27.84,27.84,0,0,0,10.06,10.51A27.28,27.28,0,0,0,1538.67,205.36Z"
         transform="translate(-0.45 -31.36)"
         id="path22"
         style="fill:#ffffff" />
      <path
         class="cls-1"
         d="M.45,32.73V247.14l47.68.05c-.53-12.66-.92-26.06,1.46-38.56a15.48,15.48,0,0,1,3.24-7.2,5.52,5.52,0,0,1,3.24-2,7.26,7.26,0,0,1,3.46.56,26.24,26.24,0,0,1,15,13.6c2.92,6.09,4.28,10.7,7.6,16.62,6.67,11.85,17.93,16.63,31,17.52,15.73,1.06,41.07-1.79,40.35-23-.12-3.45-1.14-4.76-3.12-7.59-2.4-3.41-6-5.72-9.49-8l-.87-.56c-13.26-8.7-26.39-18-38.27-28.49C97,176,86.79,168.65,84.38,162.85a1.54,1.54,0,0,1-.17-.91,1.58,1.58,0,0,1,.83-.86c20.44-12.2,44.92-32.24,57.44-52.68,3.56-5.81,8.12-12.19,9.32-19.05a9.4,9.4,0,0,0-6.61-11.44C133,73.61,116.77,76,105.56,82,96,87.2,89.1,96,82.46,104.62l-31,40.13c-.49.63-1.12,1.33-1.91,1.25-1.15-.12-1.45-1.63-1.45-2.79V32.73"
         transform="translate(-0.45 -31.36)"
         id="path24"
         style="fill:#ffffff" />
    </g>
  </g>
</svg>
