<?xml version="1.0" encoding="UTF-8" standalone="no"?>
<svg
   width="500"
   height="225"
   viewBox="0 0 500 225"
   fill="none"
   version="1.1"
   id="svg50"
   sodipodi:docname="bolas con hashtags.svg"
   inkscape:version="1.2.1 (9c6d41e410, 2022-07-14, custom)"
   xmlns:inkscape="http://www.inkscape.org/namespaces/inkscape"
   xmlns:sodipodi="http://sodipodi.sourceforge.net/DTD/sodipodi-0.dtd"
   xmlns="http://www.w3.org/2000/svg"
   xmlns:svg="http://www.w3.org/2000/svg">
  <defs
     id="defs54" />
  <sodipodi:namedview
     id="namedview52"
     pagecolor="#ffffff"
     bordercolor="#000000"
     borderopacity="0.25"
     inkscape:showpageshadow="2"
     inkscape:pageopacity="0.0"
     inkscape:pagecheckerboard="0"
     inkscape:deskcolor="#d1d1d1"
     showgrid="false"
     inkscape:zoom="0.97285714"
     inkscape:cx="700"
     inkscape:cy="112.04112"
     inkscape:window-width="1870"
     inkscape:window-height="1030"
     inkscape:window-x="19"
     inkscape:window-y="19"
     inkscape:window-maximized="1"
     inkscape:current-layer="svg50" />
  <ellipse
     cx="322.5"
     cy="68"
     rx="45.5"
     ry="46"
     fill="#ffa755"
     id="ellipse2" />
  <circle
     cx="235.5"
     cy="150.5"
     r="74.5"
     fill="#f1889f"
     id="circle6" />
  <ellipse
     cx="244"
     cy="38.5"
     rx="39"
     ry="38.5"
     fill="#7b61ff"
     id="ellipse10" />
  <ellipse
     cx="340.5"
     cy="188"
     rx="37.5"
     ry="37"
     fill="#7b61ff"
     id="ellipse12" />
  <circle
     cx="37"
     cy="188"
     r="37"
     fill="#7b61ff"
     id="circle14" />
  <circle
     cx="434.5"
     cy="165.5"
     r="59.5"
     fill="#ffa755"
     id="circle18" />
  <path
     d="m 192.92,154.168 -0.416,2.08 h 3.36 L 194.52,163 h 2.208 l 1.312,-6.752 h 5.632 L 202.328,163 h 2.208 l 1.344,-6.752 h 3.552 l 0.384,-2.08 h -3.552 l 1.056,-5.248 h 3.36 l 0.416,-2.08 h -3.392 l 1.344,-6.752 h -2.208 l -1.344,6.752 h -5.6 l 1.312,-6.752 h -2.176 l -1.344,6.752 h -3.904 l -0.384,2.08 h 3.904 l -1.056,5.248 z m 5.536,0 1.024,-5.248 h 5.632 l -1.056,5.248 z m 15.13,4.48 c 0,2.88 2.176,4.736 5.664,4.736 3.52,0 5.888,-1.824 5.888,-4.608 0,-2.24 -1.216,-3.488 -3.904,-4.16 l -2.656,-0.672 c -1.696,-0.416 -2.528,-1.248 -2.528,-2.432 0,-1.664 1.216,-2.592 3.392,-2.592 2.08,0 3.328,1.056 3.392,2.848 h 2.144 c -0.096,-2.88 -2.208,-4.672 -5.472,-4.672 -3.328,0 -5.6,1.728 -5.6,4.448 0,2.112 1.312,3.52 4,4.192 l 2.656,0.672 c 1.824,0.448 2.464,1.184 2.464,2.464 0,1.664 -1.408,2.688 -3.808,2.688 -2.176,0 -3.52,-1.12 -3.52,-2.912 z m 19.635,4.736 c 2.624,0 4.736,-1.152 5.696,-3.104 l 0.288,2.72 h 1.856 v -10.016 c 0,-4.096 -2.624,-5.888 -6.208,-5.888 -3.808,0 -6.368,2.016 -6.368,5.152 h 2.016 c 0,-2.08 1.6,-3.296 4.288,-3.296 2.272,0 4.096,0.96 4.096,4 v 0.512 l -5.12,0.416 c -3.616,0.288 -5.792,2.08 -5.792,4.928 0,2.72 1.952,4.576 5.248,4.576 z m 0.512,-1.792 c -2.112,0 -3.52,-0.96 -3.52,-2.848 0,-1.728 1.184,-3.008 4.096,-3.264 l 4.576,-0.352 v 0.832 c 0,3.36 -1.888,5.632 -5.152,5.632 z M 247.7,163 v -8.096 c 0,-3.488 1.792,-5.792 4.96,-5.792 2.56,0 4.192,1.28 4.192,4.896 V 163 h 2.208 v -9.472 c 0,-3.904 -1.76,-6.432 -6.016,-6.432 -2.24,0 -4.288,1.12 -5.312,3.104 l -0.321,-2.688 h -1.919 V 163 Z m 14.672,-7.744 c 0,4.704 3.328,8.128 7.872,8.128 4.544,0 7.872,-3.424 7.872,-8.128 0,-4.736 -3.328,-8.16 -7.872,-8.16 -4.544,0 -7.872,3.424 -7.872,8.16 z m 2.24,-0.032 c 0,-3.584 2.304,-6.144 5.632,-6.144 3.296,0 5.632,2.56 5.632,6.144 0,3.648 -2.336,6.176 -5.632,6.176 -3.328,0 -5.632,-2.528 -5.632,-6.176 z"
     fill="#ffffff"
     id="path22" />
  <circle
     cx="359"
     cy="129"
     r="25"
     fill="#21cf84"
     id="circle24" />
  <path
     d="m 222.2,40.48 -0.26,1.3 h 2.1 L 223.2,46 h 1.38 l 0.82,-4.22 h 3.52 L 228.08,46 h 1.38 l 0.84,-4.22 h 2.22 l 0.24,-1.3 h -2.22 l 0.66,-3.28 h 2.1 l 0.26,-1.3 h -2.12 l 0.84,-4.22 h -1.38 l -0.84,4.22 h -3.5 l 0.82,-4.22 h -1.36 l -0.84,4.22 h -2.44 l -0.24,1.3 h 2.44 l -0.66,3.28 z m 3.46,0 0.64,-3.28 h 3.52 l -0.66,3.28 z m 14.336,5.76 c 2.28,0 3.78,-1.1 4.3,-3.14 h -1.32 c -0.36,1.28 -1.38,1.96 -2.96,1.96 -2.08,0 -3.32,-1.36 -3.42,-3.72 h 7.7 v -0.68 c 0,-2.74 -1.78,-4.6 -4.4,-4.6 -2.76,0 -4.64,2.08 -4.64,5.1 0,3.04 1.9,5.08 4.74,5.08 z m -0.1,-9 c 1.82,0 3.02,1.24 3.02,3.1 h -6.28 c 0.24,-1.9 1.44,-3.1 3.26,-3.1 z m 5.927,3.94 c 0,3.04 1.86,5.06 4.6,5.06 2.2,0 3.92,-1.3 4.38,-3.28 h -1.4 c -0.38,1.24 -1.54,2.04 -2.98,2.04 -1.96,0 -3.24,-1.54 -3.24,-3.84 0,-2.38 1.38,-3.88 3.34,-3.88 1.34,0 2.5,0.74 2.86,2.08 h 1.38 c -0.38,-2 -2.02,-3.3 -4.26,-3.3 -2.82,0 -4.68,2.08 -4.68,5.12 z m 10.39,-0.02 c 0,2.94 2.08,5.08 4.92,5.08 2.84,0 4.92,-2.14 4.92,-5.08 0,-2.96 -2.08,-5.1 -4.92,-5.1 -2.84,0 -4.92,2.14 -4.92,5.1 z m 1.4,-0.02 c 0,-2.24 1.44,-3.84 3.52,-3.84 2.06,0 3.52,1.6 3.52,3.84 0,2.28 -1.46,3.86 -3.52,3.86 -2.08,0 -3.52,-1.58 -3.52,-3.86 z"
     fill="#ffffff"
     id="path28" />
  <path
     d="m 13.2,189.48 -0.26,1.3 h 2.1 L 14.2,195 h 1.38 l 0.82,-4.22 h 3.52 L 19.08,195 h 1.38 l 0.84,-4.22 h 2.22 l 0.24,-1.3 h -2.22 l 0.66,-3.28 h 2.1 l 0.26,-1.3 h -2.12 l 0.84,-4.22 H 21.9 l -0.84,4.22 h -3.5 l 0.82,-4.22 h -1.36 l -0.84,4.22 h -2.44 l -0.24,1.3 h 2.44 l -0.66,3.28 z m 3.46,0 0.64,-3.28 h 3.52 l -0.66,3.28 z m 14.3361,5.76 c 2.28,0 3.78,-1.1 4.3,-3.14 h -1.32 c -0.36,1.28 -1.38,1.96 -2.96,1.96 -2.08,0 -3.32,-1.36 -3.42,-3.72 h 7.7 v -0.68 c 0,-2.74 -1.78,-4.6 -4.4,-4.6 -2.76,0 -4.64,2.08 -4.64,5.1 0,3.04 1.9,5.08 4.74,5.08 z m -0.1,-9 c 1.82,0 3.02,1.24 3.02,3.1 h -6.28 c 0.24,-1.9 1.44,-3.1 3.26,-3.1 z m 5.9264,3.94 c 0,3.04 1.86,5.06 4.6,5.06 2.2,0 3.92,-1.3 4.38,-3.28 h -1.4 c -0.38,1.24 -1.54,2.04 -2.98,2.04 -1.96,0 -3.24,-1.54 -3.24,-3.84 0,-2.38 1.38,-3.88 3.34,-3.88 1.34,0 2.5,0.74 2.86,2.08 h 1.38 c -0.38,-2 -2.02,-3.3 -4.26,-3.3 -2.82,0 -4.68,2.08 -4.68,5.12 z m 10.3906,-0.02 c 0,2.94 2.08,5.08 4.92,5.08 2.84,0 4.92,-2.14 4.92,-5.08 0,-2.96 -2.08,-5.1 -4.92,-5.1 -2.84,0 -4.92,2.14 -4.92,5.1 z m 1.4,-0.02 c 0,-2.24 1.44,-3.84 3.52,-3.84 2.06,0 3.52,1.6 3.52,3.84 0,2.28 -1.46,3.86 -3.52,3.86 -2.08,0 -3.52,-1.58 -3.52,-3.86 z"
     fill="#ffffff"
     id="path30" />
  <path
     d="m 317.2,189.48 -0.26,1.3 h 2.1 L 318.2,195 h 1.38 l 0.82,-4.22 h 3.52 l -0.84,4.22 h 1.38 l 0.84,-4.22 h 2.22 l 0.24,-1.3 h -2.22 l 0.66,-3.28 h 2.1 l 0.26,-1.3 h -2.12 l 0.84,-4.22 h -1.38 l -0.84,4.22 h -3.5 l 0.82,-4.22 h -1.36 l -0.84,4.22 h -2.44 l -0.24,1.3 h 2.44 l -0.66,3.28 z m 3.46,0 0.64,-3.28 h 3.52 l -0.66,3.28 z m 14.336,5.76 c 2.28,0 3.78,-1.1 4.3,-3.14 h -1.32 c -0.36,1.28 -1.38,1.96 -2.96,1.96 -2.08,0 -3.32,-1.36 -3.42,-3.72 h 7.7 v -0.68 c 0,-2.74 -1.78,-4.6 -4.4,-4.6 -2.76,0 -4.64,2.08 -4.64,5.1 0,3.04 1.9,5.08 4.74,5.08 z m -0.1,-9 c 1.82,0 3.02,1.24 3.02,3.1 h -6.28 c 0.24,-1.9 1.44,-3.1 3.26,-3.1 z m 5.927,3.94 c 0,3.04 1.86,5.06 4.6,5.06 2.2,0 3.92,-1.3 4.38,-3.28 h -1.4 c -0.38,1.24 -1.54,2.04 -2.98,2.04 -1.96,0 -3.24,-1.54 -3.24,-3.84 0,-2.38 1.38,-3.88 3.34,-3.88 1.34,0 2.5,0.74 2.86,2.08 h 1.38 c -0.38,-2 -2.02,-3.3 -4.26,-3.3 -2.82,0 -4.68,2.08 -4.68,5.12 z m 10.39,-0.02 c 0,2.94 2.08,5.08 4.92,5.08 2.84,0 4.92,-2.14 4.92,-5.08 0,-2.96 -2.08,-5.1 -4.92,-5.1 -2.84,0 -4.92,2.14 -4.92,5.1 z m 1.4,-0.02 c 0,-2.24 1.44,-3.84 3.52,-3.84 2.06,0 3.52,1.6 3.52,3.84 0,2.28 -1.46,3.86 -3.52,3.86 -2.08,0 -3.52,-1.58 -3.52,-3.86 z"
     fill="#ffffff"
     id="path32" />
  <path
     d="m 389.44,168.376 -0.312,1.56 h 2.52 L 390.64,175 h 1.656 l 0.984,-5.064 h 4.224 L 396.496,175 h 1.656 l 1.008,-5.064 h 2.664 l 0.288,-1.56 h -2.664 l 0.792,-3.936 h 2.52 l 0.312,-1.56 h -2.544 l 1.008,-5.064 h -1.656 l -1.008,5.064 h -4.2 l 0.984,-5.064 h -1.632 l -1.008,5.064 h -2.928 l -0.288,1.56 h 2.928 l -0.792,3.936 z m 4.152,0 0.768,-3.936 h 4.224 l -0.792,3.936 z m 11.539,0.48 c 0,3.168 2.016,5.784 5.328,5.784 1.992,0 3.6,-0.96 4.392,-2.592 v 2.76 c 0,2.424 -1.584,4.032 -3.96,4.032 -2.088,0 -3.528,-1.104 -3.888,-2.976 h -1.656 c 0.456,2.808 2.544,4.488 5.52,4.488 3.408,0 5.616,-2.256 5.616,-5.712 v -11.256 h -1.44 l -0.168,2.328 c -0.744,-1.704 -2.28,-2.64 -4.296,-2.64 -3.408,0 -5.448,2.616 -5.448,5.784 z m 1.656,-0.024 c 0,-2.352 1.44,-4.296 3.936,-4.296 2.544,0 3.984,1.824 3.984,4.296 0,2.496 -1.488,4.32 -4.008,4.32 -2.448,0 -3.912,-1.944 -3.912,-4.32 z m 19.224,-5.592 c -0.408,-0.096 -0.72,-0.12 -1.08,-0.12 -1.632,0 -2.856,0.816 -3.312,2.064 l -0.12,-1.8 h -1.56 V 175 h 1.656 v -6.624 c 0,-2.208 1.368,-3.648 3.504,-3.648 h 0.912 z m 5.069,12.048 c 1.968,0 3.552,-0.864 4.272,-2.328 l 0.216,2.04 h 1.392 v -7.512 c 0,-3.072 -1.968,-4.416 -4.656,-4.416 -2.856,0 -4.776,1.512 -4.776,3.864 h 1.512 c 0,-1.56 1.2,-2.472 3.216,-2.472 1.704,0 3.072,0.72 3.072,3 v 0.384 l -3.84,0.312 c -2.712,0.216 -4.344,1.56 -4.344,3.696 0,2.04 1.464,3.432 3.936,3.432 z m 0.384,-1.344 c -1.584,0 -2.64,-0.72 -2.64,-2.136 0,-1.296 0.888,-2.256 3.072,-2.448 l 3.432,-0.264 v 0.624 c 0,2.52 -1.416,4.224 -3.864,4.224 z M 441.939,175 v -6.072 c 0,-2.616 1.344,-4.344 3.72,-4.344 1.92,0 3.144,0.96 3.144,3.672 V 175 h 1.656 v -7.104 c 0,-2.928 -1.32,-4.824 -4.512,-4.824 -1.68,0 -3.216,0.84 -3.984,2.328 l -0.24,-2.016 h -1.44 V 175 Z m 16.692,0.288 c 2.736,0 4.536,-1.32 5.16,-3.768 h -1.584 c -0.432,1.536 -1.656,2.352 -3.552,2.352 -2.496,0 -3.984,-1.632 -4.104,-4.464 h 9.24 v -0.816 c 0,-3.288 -2.136,-5.52 -5.28,-5.52 -3.312,0 -5.568,2.496 -5.568,6.12 0,3.648 2.28,6.096 5.688,6.096 z m -0.12,-10.8 c 2.184,0 3.624,1.488 3.624,3.72 h -7.536 c 0.288,-2.28 1.728,-3.72 3.912,-3.72 z M 468.167,175 v -17.496 h -1.656 V 175 Z"
     fill="#ffffff"
     id="path38" />
  <path
     d="m 287.2,68.48 -0.26,1.3 h 2.1 L 288.2,74 h 1.38 l 0.82,-4.22 h 3.52 L 293.08,74 h 1.38 l 0.84,-4.22 h 2.22 l 0.24,-1.3 h -2.22 l 0.66,-3.28 h 2.1 l 0.26,-1.3 h -2.12 l 0.84,-4.22 h -1.38 l -0.84,4.22 h -3.5 l 0.82,-4.22 h -1.36 l -0.84,4.22 h -2.44 l -0.24,1.3 h 2.44 l -0.66,3.28 z m 3.46,0 0.64,-3.28 h 3.52 l -0.66,3.28 z m 9.616,0.4 c 0,2.64 1.68,4.82 4.44,4.82 1.66,0 3,-0.8 3.66,-2.16 v 2.3 c 0,2.02 -1.32,3.36 -3.3,3.36 -1.74,0 -2.94,-0.92 -3.24,-2.48 h -1.38 c 0.38,2.34 2.12,3.74 4.6,3.74 2.84,0 4.68,-1.88 4.68,-4.76 v -9.38 h -1.2 l -0.14,1.94 c -0.62,-1.42 -1.9,-2.2 -3.58,-2.2 -2.84,0 -4.54,2.18 -4.54,4.82 z m 1.38,-0.02 c 0,-1.96 1.2,-3.58 3.28,-3.58 2.12,0 3.32,1.52 3.32,3.58 0,2.08 -1.24,3.6 -3.34,3.6 -2.04,0 -3.26,-1.62 -3.26,-3.6 z m 16.02,-4.66 c -0.34,-0.08 -0.6,-0.1 -0.9,-0.1 -1.36,0 -2.38,0.68 -2.76,1.72 l -0.1,-1.5 h -1.3 V 74 h 1.38 v -5.52 c 0,-1.84 1.14,-3.04 2.92,-3.04 h 0.76 z m 4.224,10.04 c 1.64,0 2.96,-0.72 3.56,-1.94 l 0.18,1.7 h 1.16 v -6.26 c 0,-2.56 -1.64,-3.68 -3.88,-3.68 -2.38,0 -3.98,1.26 -3.98,3.22 h 1.26 c 0,-1.3 1,-2.06 2.68,-2.06 1.42,0 2.56,0.6 2.56,2.5 v 0.32 l -3.2,0.26 c -2.26,0.18 -3.62,1.3 -3.62,3.08 0,1.7 1.22,2.86 3.28,2.86 z m 0.32,-1.12 c -1.32,0 -2.2,-0.6 -2.2,-1.78 0,-1.08 0.74,-1.88 2.56,-2.04 l 2.86,-0.22 v 0.52 c 0,2.1 -1.18,3.52 -3.22,3.52 z m 8.729,0.88 v -5.06 c 0,-2.18 1.12,-3.62 3.1,-3.62 1.6,0 2.62,0.8 2.62,3.06 V 74 h 1.38 v -5.92 c 0,-2.44 -1.1,-4.02 -3.76,-4.02 -1.4,0 -2.68,0.7 -3.32,1.94 l -0.2,-1.68 h -1.2 V 74 Z m 13.91,0.24 c 2.28,0 3.78,-1.1 4.3,-3.14 h -1.32 c -0.36,1.28 -1.38,1.96 -2.96,1.96 -2.08,0 -3.32,-1.36 -3.42,-3.72 h 7.7 v -0.68 c 0,-2.74 -1.78,-4.6 -4.4,-4.6 -2.76,0 -4.64,2.08 -4.64,5.1 0,3.04 1.9,5.08 4.74,5.08 z m -0.1,-9 c 1.82,0 3.02,1.24 3.02,3.1 h -6.28 c 0.24,-1.9 1.44,-3.1 3.26,-3.1 z M 352.806,74 V 59.42 h -1.38 V 74 Z"
     fill="#ffffff"
     id="path40" />
  <path
     d="m 347.84,127.136 -0.182,0.91 h 1.47 L 348.54,131 h 0.966 l 0.574,-2.954 h 2.464 L 351.956,131 h 0.966 l 0.588,-2.954 h 1.554 l 0.168,-0.91 h -1.554 l 0.462,-2.296 h 1.47 l 0.182,-0.91 h -1.484 l 0.588,-2.954 h -0.966 l -0.588,2.954 h -2.45 l 0.574,-2.954 h -0.952 l -0.588,2.954 h -1.708 l -0.168,0.91 h 1.708 l -0.462,2.296 z m 2.422,0 0.448,-2.296 h 2.464 l -0.462,2.296 z m 8.201,3.864 v -2.03 l 1.316,-1.358 2.156,3.388 h 1.12 l -2.618,-4.074 2.604,-2.702 h -1.218 l -3.36,3.5 v -6.93 h -0.966 V 131 Z m 5.284,-3.584 c 0,1.848 1.176,3.374 3.108,3.374 1.162,0 2.1,-0.56 2.562,-1.512 v 1.61 c 0,1.414 -0.924,2.352 -2.31,2.352 -1.218,0 -2.058,-0.644 -2.268,-1.736 h -0.966 c 0.266,1.638 1.484,2.618 3.22,2.618 1.988,0 3.276,-1.316 3.276,-3.332 v -6.566 h -0.84 l -0.098,1.358 c -0.434,-0.994 -1.33,-1.54 -2.506,-1.54 -1.988,0 -3.178,1.526 -3.178,3.374 z m 0.966,-0.014 c 0,-1.372 0.84,-2.506 2.296,-2.506 1.484,0 2.324,1.064 2.324,2.506 0,1.456 -0.868,2.52 -2.338,2.52 -1.428,0 -2.282,-1.134 -2.282,-2.52 z"
     fill="#ffffff"
     id="path42" />
</svg>
