<svg width="1400" height="225" viewBox="0 0 1400 225" fill="none" xmlns="http://www.w3.org/2000/svg">
<ellipse cx="322.5" cy="68" rx="45.5" ry="46" fill="#FFA755"/>
<ellipse cx="1038.5" cy="188" rx="37.5" ry="37" fill="#7B61FF"/>
<circle cx="235.5" cy="150.5" r="74.5" fill="#F1889F"/>
<circle cx="1063.5" cy="79.5" r="74.5" fill="#F1889F"/>
<ellipse cx="244" cy="38.5" rx="39" ry="38.5" fill="#7B61FF"/>
<ellipse cx="340.5" cy="188" rx="37.5" ry="37" fill="#7B61FF"/>
<circle cx="37" cy="188" r="37" fill="#7B61FF"/>
<circle cx="1340.5" cy="69.5" r="59.5" fill="#FFA755"/>
<circle cx="434.5" cy="165.5" r="59.5" fill="#FFA755"/>
<ellipse cx="1212" cy="138.5" rx="87" ry="86.5" fill="#21CF84"/>
<path d="M192.92 154.168L192.504 156.248H195.864L194.52 163H196.728L198.04 156.248H203.672L202.328 163H204.536L205.88 156.248H209.432L209.816 154.168H206.264L207.32 148.92H210.68L211.096 146.84H207.704L209.048 140.088H206.84L205.496 146.84H199.896L201.208 140.088H199.032L197.688 146.84H193.784L193.4 148.92H197.304L196.248 154.168H192.92ZM198.456 154.168L199.48 148.92H205.112L204.056 154.168H198.456ZM213.586 158.648C213.586 161.528 215.762 163.384 219.25 163.384C222.77 163.384 225.138 161.56 225.138 158.776C225.138 156.536 223.922 155.288 221.234 154.616L218.578 153.944C216.882 153.528 216.05 152.696 216.05 151.512C216.05 149.848 217.266 148.92 219.442 148.92C221.522 148.92 222.77 149.976 222.834 151.768H224.978C224.882 148.888 222.77 147.096 219.506 147.096C216.178 147.096 213.906 148.824 213.906 151.544C213.906 153.656 215.218 155.064 217.906 155.736L220.562 156.408C222.386 156.856 223.026 157.592 223.026 158.872C223.026 160.536 221.618 161.56 219.218 161.56C217.042 161.56 215.698 160.44 215.698 158.648H213.586ZM233.221 163.384C235.845 163.384 237.957 162.232 238.917 160.28L239.205 163H241.061V152.984C241.061 148.888 238.437 147.096 234.853 147.096C231.045 147.096 228.485 149.112 228.485 152.248H230.501C230.501 150.168 232.101 148.952 234.789 148.952C237.061 148.952 238.885 149.912 238.885 152.952V153.464L233.765 153.88C230.149 154.168 227.973 155.96 227.973 158.808C227.973 161.528 229.925 163.384 233.221 163.384ZM233.733 161.592C231.621 161.592 230.213 160.632 230.213 158.744C230.213 157.016 231.397 155.736 234.309 155.48L238.885 155.128V155.96C238.885 159.32 236.997 161.592 233.733 161.592ZM247.7 163V154.904C247.7 151.416 249.492 149.112 252.66 149.112C255.22 149.112 256.852 150.392 256.852 154.008V163H259.06V153.528C259.06 149.624 257.3 147.096 253.044 147.096C250.804 147.096 248.756 148.216 247.732 150.2L247.411 147.512H245.492V163H247.7ZM262.372 155.256C262.372 159.96 265.7 163.384 270.244 163.384C274.788 163.384 278.116 159.96 278.116 155.256C278.116 150.52 274.788 147.096 270.244 147.096C265.7 147.096 262.372 150.52 262.372 155.256ZM264.612 155.224C264.612 151.64 266.916 149.08 270.244 149.08C273.54 149.08 275.876 151.64 275.876 155.224C275.876 158.872 273.54 161.4 270.244 161.4C266.916 161.4 264.612 158.872 264.612 155.224Z" fill="white"/>
<circle cx="359" cy="129" r="25" fill="#21CF84"/>
<path d="M1020.92 80.168L1020.5 82.248H1023.86L1022.52 89H1024.73L1026.04 82.248H1031.67L1030.33 89H1032.54L1033.88 82.248H1037.43L1037.82 80.168H1034.26L1035.32 74.92H1038.68L1039.1 72.84H1035.7L1037.05 66.088H1034.84L1033.5 72.84H1027.9L1029.21 66.088H1027.03L1025.69 72.84H1021.78L1021.4 74.92H1025.3L1024.25 80.168H1020.92ZM1026.46 80.168L1027.48 74.92H1033.11L1032.06 80.168H1026.46ZM1041.59 84.648C1041.59 87.528 1043.76 89.384 1047.25 89.384C1050.77 89.384 1053.14 87.56 1053.14 84.776C1053.14 82.536 1051.92 81.288 1049.23 80.616L1046.58 79.944C1044.88 79.528 1044.05 78.696 1044.05 77.512C1044.05 75.848 1045.27 74.92 1047.44 74.92C1049.52 74.92 1050.77 75.976 1050.83 77.768H1052.98C1052.88 74.888 1050.77 73.096 1047.51 73.096C1044.18 73.096 1041.91 74.824 1041.91 77.544C1041.91 79.656 1043.22 81.064 1045.91 81.736L1048.56 82.408C1050.39 82.856 1051.03 83.592 1051.03 84.872C1051.03 86.536 1049.62 87.56 1047.22 87.56C1045.04 87.56 1043.7 86.44 1043.7 84.648H1041.59ZM1061.22 89.384C1063.84 89.384 1065.96 88.232 1066.92 86.28L1067.2 89H1069.06V78.984C1069.06 74.888 1066.44 73.096 1062.85 73.096C1059.04 73.096 1056.48 75.112 1056.48 78.248H1058.5C1058.5 76.168 1060.1 74.952 1062.79 74.952C1065.06 74.952 1066.88 75.912 1066.88 78.952V79.464L1061.76 79.88C1058.15 80.168 1055.97 81.96 1055.97 84.808C1055.97 87.528 1057.92 89.384 1061.22 89.384ZM1061.73 87.592C1059.62 87.592 1058.21 86.632 1058.21 84.744C1058.21 83.016 1059.4 81.736 1062.31 81.48L1066.88 81.128V81.96C1066.88 85.32 1065 87.592 1061.73 87.592ZM1075.7 89V80.904C1075.7 77.416 1077.49 75.112 1080.66 75.112C1083.22 75.112 1084.85 76.392 1084.85 80.008V89H1087.06V79.528C1087.06 75.624 1085.3 73.096 1081.04 73.096C1078.8 73.096 1076.76 74.216 1075.73 76.2L1075.41 73.512H1073.49V89H1075.7ZM1090.37 81.256C1090.37 85.96 1093.7 89.384 1098.24 89.384C1102.79 89.384 1106.12 85.96 1106.12 81.256C1106.12 76.52 1102.79 73.096 1098.24 73.096C1093.7 73.096 1090.37 76.52 1090.37 81.256ZM1092.61 81.224C1092.61 77.64 1094.92 75.08 1098.24 75.08C1101.54 75.08 1103.88 77.64 1103.88 81.224C1103.88 84.872 1101.54 87.4 1098.24 87.4C1094.92 87.4 1092.61 84.872 1092.61 81.224Z" fill="white"/>
<path d="M222.2 40.48L221.94 41.78H224.04L223.2 46H224.58L225.4 41.78H228.92L228.08 46H229.46L230.3 41.78H232.52L232.76 40.48H230.54L231.2 37.2H233.3L233.56 35.9H231.44L232.28 31.68H230.9L230.06 35.9H226.56L227.38 31.68H226.02L225.18 35.9H222.74L222.5 37.2H224.94L224.28 40.48H222.2ZM225.66 40.48L226.3 37.2H229.82L229.16 40.48H225.66ZM239.996 46.24C242.276 46.24 243.776 45.14 244.296 43.1H242.976C242.616 44.38 241.596 45.06 240.016 45.06C237.936 45.06 236.696 43.7 236.596 41.34H244.296V40.66C244.296 37.92 242.516 36.06 239.896 36.06C237.136 36.06 235.256 38.14 235.256 41.16C235.256 44.2 237.156 46.24 239.996 46.24ZM239.896 37.24C241.716 37.24 242.916 38.48 242.916 40.34H236.636C236.876 38.44 238.076 37.24 239.896 37.24ZM245.823 41.18C245.823 44.22 247.683 46.24 250.423 46.24C252.623 46.24 254.343 44.94 254.803 42.96H253.403C253.023 44.2 251.863 45 250.423 45C248.463 45 247.183 43.46 247.183 41.16C247.183 38.78 248.563 37.28 250.523 37.28C251.863 37.28 253.023 38.02 253.383 39.36H254.763C254.383 37.36 252.743 36.06 250.503 36.06C247.683 36.06 245.823 38.14 245.823 41.18ZM256.213 41.16C256.213 44.1 258.293 46.24 261.133 46.24C263.973 46.24 266.053 44.1 266.053 41.16C266.053 38.2 263.973 36.06 261.133 36.06C258.293 36.06 256.213 38.2 256.213 41.16ZM257.613 41.14C257.613 38.9 259.053 37.3 261.133 37.3C263.193 37.3 264.653 38.9 264.653 41.14C264.653 43.42 263.193 45 261.133 45C259.053 45 257.613 43.42 257.613 41.14Z" fill="white"/>
<path d="M13.2 189.48L12.94 190.78H15.04L14.2 195H15.58L16.4 190.78H19.92L19.08 195H20.46L21.3 190.78H23.52L23.76 189.48H21.54L22.2 186.2H24.3L24.56 184.9H22.44L23.28 180.68H21.9L21.06 184.9H17.56L18.38 180.68H17.02L16.18 184.9H13.74L13.5 186.2H15.94L15.28 189.48H13.2ZM16.66 189.48L17.3 186.2H20.82L20.16 189.48H16.66ZM30.9961 195.24C33.2761 195.24 34.7761 194.14 35.2961 192.1H33.9761C33.6161 193.38 32.5961 194.06 31.0161 194.06C28.9361 194.06 27.6961 192.7 27.5961 190.34H35.2961V189.66C35.2961 186.92 33.5161 185.06 30.8961 185.06C28.1361 185.06 26.2561 187.14 26.2561 190.16C26.2561 193.2 28.1561 195.24 30.9961 195.24ZM30.8961 186.24C32.7161 186.24 33.9161 187.48 33.9161 189.34H27.6361C27.8761 187.44 29.0761 186.24 30.8961 186.24ZM36.8225 190.18C36.8225 193.22 38.6825 195.24 41.4225 195.24C43.6225 195.24 45.3425 193.94 45.8025 191.96H44.4025C44.0225 193.2 42.8625 194 41.4225 194C39.4625 194 38.1825 192.46 38.1825 190.16C38.1825 187.78 39.5625 186.28 41.5225 186.28C42.8625 186.28 44.0225 187.02 44.3825 188.36H45.7625C45.3825 186.36 43.7425 185.06 41.5025 185.06C38.6825 185.06 36.8225 187.14 36.8225 190.18ZM47.2131 190.16C47.2131 193.1 49.2931 195.24 52.1331 195.24C54.9731 195.24 57.0531 193.1 57.0531 190.16C57.0531 187.2 54.9731 185.06 52.1331 185.06C49.2931 185.06 47.2131 187.2 47.2131 190.16ZM48.6131 190.14C48.6131 187.9 50.0531 186.3 52.1331 186.3C54.1931 186.3 55.6531 187.9 55.6531 190.14C55.6531 192.42 54.1931 194 52.1331 194C50.0531 194 48.6131 192.42 48.6131 190.14Z" fill="white"/>
<path d="M317.2 189.48L316.94 190.78H319.04L318.2 195H319.58L320.4 190.78H323.92L323.08 195H324.46L325.3 190.78H327.52L327.76 189.48H325.54L326.2 186.2H328.3L328.56 184.9H326.44L327.28 180.68H325.9L325.06 184.9H321.56L322.38 180.68H321.02L320.18 184.9H317.74L317.5 186.2H319.94L319.28 189.48H317.2ZM320.66 189.48L321.3 186.2H324.82L324.16 189.48H320.66ZM334.996 195.24C337.276 195.24 338.776 194.14 339.296 192.1H337.976C337.616 193.38 336.596 194.06 335.016 194.06C332.936 194.06 331.696 192.7 331.596 190.34H339.296V189.66C339.296 186.92 337.516 185.06 334.896 185.06C332.136 185.06 330.256 187.14 330.256 190.16C330.256 193.2 332.156 195.24 334.996 195.24ZM334.896 186.24C336.716 186.24 337.916 187.48 337.916 189.34H331.636C331.876 187.44 333.076 186.24 334.896 186.24ZM340.823 190.18C340.823 193.22 342.683 195.24 345.423 195.24C347.623 195.24 349.343 193.94 349.803 191.96H348.403C348.023 193.2 346.863 194 345.423 194C343.463 194 342.183 192.46 342.183 190.16C342.183 187.78 343.563 186.28 345.523 186.28C346.863 186.28 348.023 187.02 348.383 188.36H349.763C349.383 186.36 347.743 185.06 345.503 185.06C342.683 185.06 340.823 187.14 340.823 190.18ZM351.213 190.16C351.213 193.1 353.293 195.24 356.133 195.24C358.973 195.24 361.053 193.1 361.053 190.16C361.053 187.2 358.973 185.06 356.133 185.06C353.293 185.06 351.213 187.2 351.213 190.16ZM352.613 190.14C352.613 187.9 354.053 186.3 356.133 186.3C358.193 186.3 359.653 187.9 359.653 190.14C359.653 192.42 358.193 194 356.133 194C354.053 194 352.613 192.42 352.613 190.14Z" fill="white"/>
<path d="M1147.16 142.064L1146.69 144.404H1150.47L1148.96 152H1151.44L1152.92 144.404H1159.26L1157.74 152H1160.23L1161.74 144.404H1165.74L1166.17 142.064H1162.17L1163.36 136.16H1167.14L1167.61 133.82H1163.79L1165.3 126.224H1162.82L1161.31 133.82H1155.01L1156.48 126.224H1154.04L1152.52 133.82H1148.13L1147.7 136.16H1152.09L1150.9 142.064H1147.16ZM1153.39 142.064L1154.54 136.16H1160.88L1159.69 142.064H1153.39ZM1180.99 134.36C1180.38 134.216 1179.91 134.18 1179.37 134.18C1176.92 134.18 1175.09 135.404 1174.4 137.276L1174.22 134.576H1171.88V152H1174.37V142.064C1174.37 138.752 1176.42 136.592 1179.62 136.592H1180.99V134.36ZM1194.39 128.276H1191.8L1189.64 132.56H1191.66L1194.39 128.276ZM1188.6 152.432C1191.55 152.432 1193.92 151.136 1195 148.94L1195.33 152H1197.42V140.732C1197.42 136.124 1194.46 134.108 1190.43 134.108C1186.15 134.108 1183.27 136.376 1183.27 139.904H1185.54C1185.54 137.564 1187.34 136.196 1190.36 136.196C1192.92 136.196 1194.97 137.276 1194.97 140.696V141.272L1189.21 141.74C1185.14 142.064 1182.69 144.08 1182.69 147.284C1182.69 150.344 1184.89 152.432 1188.6 152.432ZM1189.17 150.416C1186.8 150.416 1185.21 149.336 1185.21 147.212C1185.21 145.268 1186.54 143.828 1189.82 143.54L1194.97 143.144V144.08C1194.97 147.86 1192.84 150.416 1189.17 150.416ZM1202.4 159.596H1204.88V148.652C1206.11 151.172 1208.45 152.432 1211.4 152.432C1216.55 152.432 1219.46 148.472 1219.46 143.216C1219.46 137.96 1216.44 134.108 1211.4 134.108C1208.48 134.108 1206.04 135.404 1204.81 138.104L1204.56 134.576H1202.4V159.596ZM1204.92 143.288C1204.92 139.256 1207.15 136.376 1210.97 136.376C1214.75 136.376 1216.94 139.256 1216.94 143.288C1216.94 147.284 1214.75 150.2 1210.97 150.2C1207.15 150.2 1204.92 147.284 1204.92 143.288ZM1224.65 129.788C1225.66 129.788 1226.52 128.96 1226.52 127.952C1226.52 126.944 1225.66 126.08 1224.65 126.08C1223.64 126.08 1222.81 126.944 1222.81 127.952C1222.81 128.96 1223.64 129.788 1224.65 129.788ZM1223.42 152H1225.91V134.576H1223.42V152ZM1237.93 152.432C1240.84 152.432 1243.29 151.136 1244.52 148.436L1244.77 152H1246.93V125.756H1244.44V137.888C1243.22 135.368 1240.92 134.108 1238.04 134.108C1232.85 134.108 1229.86 138.068 1229.86 143.324C1229.86 148.544 1232.85 152.432 1237.93 152.432ZM1238.36 150.164C1234.58 150.164 1232.38 147.284 1232.38 143.252C1232.38 139.256 1234.58 136.34 1238.36 136.34C1242.18 136.34 1244.41 139.256 1244.41 143.252C1244.41 147.284 1242.18 150.164 1238.36 150.164ZM1250.89 143.288C1250.89 148.58 1254.63 152.432 1259.74 152.432C1264.86 152.432 1268.6 148.58 1268.6 143.288C1268.6 137.96 1264.86 134.108 1259.74 134.108C1254.63 134.108 1250.89 137.96 1250.89 143.288ZM1253.41 143.252C1253.41 139.22 1256 136.34 1259.74 136.34C1263.45 136.34 1266.08 139.22 1266.08 143.252C1266.08 147.356 1263.45 150.2 1259.74 150.2C1256 150.2 1253.41 147.356 1253.41 143.252Z" fill="white"/>
<path d="M1298.44 71.376L1298.13 72.936H1300.65L1299.64 78H1301.3L1302.28 72.936H1306.5L1305.5 78H1307.15L1308.16 72.936H1310.82L1311.11 71.376H1308.45L1309.24 67.44H1311.76L1312.07 65.88H1309.53L1310.54 60.816H1308.88L1307.87 65.88H1303.67L1304.66 60.816H1303.02L1302.02 65.88H1299.09L1298.8 67.44H1301.73L1300.94 71.376H1298.44ZM1302.59 71.376L1303.36 67.44H1307.58L1306.79 71.376H1302.59ZM1314.13 71.856C1314.13 75.024 1316.15 77.64 1319.46 77.64C1321.45 77.64 1323.06 76.68 1323.85 75.048V77.808C1323.85 80.232 1322.27 81.84 1319.89 81.84C1317.8 81.84 1316.36 80.736 1316 78.864H1314.35C1314.8 81.672 1316.89 83.352 1319.87 83.352C1323.28 83.352 1325.48 81.096 1325.48 77.64V66.384H1324.04L1323.88 68.712C1323.13 67.008 1321.6 66.072 1319.58 66.072C1316.17 66.072 1314.13 68.688 1314.13 71.856ZM1315.79 71.832C1315.79 69.48 1317.23 67.536 1319.72 67.536C1322.27 67.536 1323.71 69.36 1323.71 71.832C1323.71 74.328 1322.22 76.152 1319.7 76.152C1317.25 76.152 1315.79 74.208 1315.79 71.832ZM1335.01 66.24C1334.6 66.144 1334.29 66.12 1333.93 66.12C1332.3 66.12 1331.07 66.936 1330.62 68.184L1330.5 66.384H1328.94V78H1330.59V71.376C1330.59 69.168 1331.96 67.728 1334.1 67.728H1335.01V66.24ZM1340.08 78.288C1342.05 78.288 1343.63 77.424 1344.35 75.96L1344.57 78H1345.96V70.488C1345.96 67.416 1343.99 66.072 1341.3 66.072C1338.45 66.072 1336.53 67.584 1336.53 69.936H1338.04C1338.04 68.376 1339.24 67.464 1341.26 67.464C1342.96 67.464 1344.33 68.184 1344.33 70.464V70.848L1340.49 71.16C1337.78 71.376 1336.14 72.72 1336.14 74.856C1336.14 76.896 1337.61 78.288 1340.08 78.288ZM1340.46 76.944C1338.88 76.944 1337.82 76.224 1337.82 74.808C1337.82 73.512 1338.71 72.552 1340.9 72.36L1344.33 72.096V72.72C1344.33 75.24 1342.91 76.944 1340.46 76.944ZM1350.94 78V71.928C1350.94 69.312 1352.28 67.584 1354.66 67.584C1356.58 67.584 1357.8 68.544 1357.8 71.256V78H1359.46V70.896C1359.46 67.968 1358.14 66.072 1354.95 66.072C1353.27 66.072 1351.73 66.912 1350.96 68.4L1350.72 66.384H1349.28V78H1350.94ZM1367.63 78.288C1370.37 78.288 1372.17 76.968 1372.79 74.52H1371.21C1370.78 76.056 1369.55 76.872 1367.66 76.872C1365.16 76.872 1363.67 75.24 1363.55 72.408H1372.79V71.592C1372.79 68.304 1370.66 66.072 1367.51 66.072C1364.2 66.072 1361.94 68.568 1361.94 72.192C1361.94 75.84 1364.22 78.288 1367.63 78.288ZM1367.51 67.488C1369.7 67.488 1371.14 68.976 1371.14 71.208H1363.6C1363.89 68.928 1365.33 67.488 1367.51 67.488ZM1377.17 78V60.504H1375.51V78H1377.17Z" fill="white"/>
<path d="M389.44 168.376L389.128 169.936H391.648L390.64 175H392.296L393.28 169.936H397.504L396.496 175H398.152L399.16 169.936H401.824L402.112 168.376H399.448L400.24 164.44H402.76L403.072 162.88H400.528L401.536 157.816H399.88L398.872 162.88H394.672L395.656 157.816H394.024L393.016 162.88H390.088L389.8 164.44H392.728L391.936 168.376H389.44ZM393.592 168.376L394.36 164.44H398.584L397.792 168.376H393.592ZM405.131 168.856C405.131 172.024 407.147 174.64 410.459 174.64C412.451 174.64 414.059 173.68 414.851 172.048V174.808C414.851 177.232 413.267 178.84 410.891 178.84C408.803 178.84 407.363 177.736 407.003 175.864H405.347C405.803 178.672 407.891 180.352 410.867 180.352C414.275 180.352 416.483 178.096 416.483 174.64V163.384H415.043L414.875 165.712C414.131 164.008 412.595 163.072 410.579 163.072C407.171 163.072 405.131 165.688 405.131 168.856ZM406.787 168.832C406.787 166.48 408.227 164.536 410.723 164.536C413.267 164.536 414.707 166.36 414.707 168.832C414.707 171.328 413.219 173.152 410.699 173.152C408.251 173.152 406.787 171.208 406.787 168.832ZM426.011 163.24C425.603 163.144 425.291 163.12 424.931 163.12C423.299 163.12 422.075 163.936 421.619 165.184L421.499 163.384H419.939V175H421.595V168.376C421.595 166.168 422.963 164.728 425.099 164.728H426.011V163.24ZM431.08 175.288C433.048 175.288 434.632 174.424 435.352 172.96L435.568 175H436.96V167.488C436.96 164.416 434.992 163.072 432.304 163.072C429.448 163.072 427.528 164.584 427.528 166.936H429.04C429.04 165.376 430.24 164.464 432.256 164.464C433.96 164.464 435.328 165.184 435.328 167.464V167.848L431.488 168.16C428.776 168.376 427.144 169.72 427.144 171.856C427.144 173.896 428.608 175.288 431.08 175.288ZM431.464 173.944C429.88 173.944 428.824 173.224 428.824 171.808C428.824 170.512 429.712 169.552 431.896 169.36L435.328 169.096V169.72C435.328 172.24 433.912 173.944 431.464 173.944ZM441.939 175V168.928C441.939 166.312 443.283 164.584 445.659 164.584C447.579 164.584 448.803 165.544 448.803 168.256V175H450.459V167.896C450.459 164.968 449.139 163.072 445.947 163.072C444.267 163.072 442.731 163.912 441.963 165.4L441.723 163.384H440.283V175H441.939ZM458.631 175.288C461.367 175.288 463.167 173.968 463.791 171.52H462.207C461.775 173.056 460.551 173.872 458.655 173.872C456.159 173.872 454.671 172.24 454.551 169.408H463.791V168.592C463.791 165.304 461.655 163.072 458.511 163.072C455.199 163.072 452.943 165.568 452.943 169.192C452.943 172.84 455.223 175.288 458.631 175.288ZM458.511 164.488C460.695 164.488 462.135 165.976 462.135 168.208H454.599C454.887 165.928 456.327 164.488 458.511 164.488ZM468.167 175V157.504H466.511V175H468.167Z" fill="white"/>
<path d="M287.2 68.48L286.94 69.78H289.04L288.2 74H289.58L290.4 69.78H293.92L293.08 74H294.46L295.3 69.78H297.52L297.76 68.48H295.54L296.2 65.2H298.3L298.56 63.9H296.44L297.28 59.68H295.9L295.06 63.9H291.56L292.38 59.68H291.02L290.18 63.9H287.74L287.5 65.2H289.94L289.28 68.48H287.2ZM290.66 68.48L291.3 65.2H294.82L294.16 68.48H290.66ZM300.276 68.88C300.276 71.52 301.956 73.7 304.716 73.7C306.376 73.7 307.716 72.9 308.376 71.54V73.84C308.376 75.86 307.056 77.2 305.076 77.2C303.336 77.2 302.136 76.28 301.836 74.72H300.456C300.836 77.06 302.576 78.46 305.056 78.46C307.896 78.46 309.736 76.58 309.736 73.7V64.32H308.536L308.396 66.26C307.776 64.84 306.496 64.06 304.816 64.06C301.976 64.06 300.276 66.24 300.276 68.88ZM301.656 68.86C301.656 66.9 302.856 65.28 304.936 65.28C307.056 65.28 308.256 66.8 308.256 68.86C308.256 70.94 307.016 72.46 304.916 72.46C302.876 72.46 301.656 70.84 301.656 68.86ZM317.676 64.2C317.336 64.12 317.076 64.1 316.776 64.1C315.416 64.1 314.396 64.78 314.016 65.82L313.916 64.32H312.616V74H313.996V68.48C313.996 66.64 315.136 65.44 316.916 65.44H317.676V64.2ZM321.9 74.24C323.54 74.24 324.86 73.52 325.46 72.3L325.64 74H326.8V67.74C326.8 65.18 325.16 64.06 322.92 64.06C320.54 64.06 318.94 65.32 318.94 67.28H320.2C320.2 65.98 321.2 65.22 322.88 65.22C324.3 65.22 325.44 65.82 325.44 67.72V68.04L322.24 68.3C319.98 68.48 318.62 69.6 318.62 71.38C318.62 73.08 319.84 74.24 321.9 74.24ZM322.22 73.12C320.9 73.12 320.02 72.52 320.02 71.34C320.02 70.26 320.76 69.46 322.58 69.3L325.44 69.08V69.6C325.44 71.7 324.26 73.12 322.22 73.12ZM330.949 74V68.94C330.949 66.76 332.069 65.32 334.049 65.32C335.649 65.32 336.669 66.12 336.669 68.38V74H338.049V68.08C338.049 65.64 336.949 64.06 334.289 64.06C332.889 64.06 331.609 64.76 330.969 66L330.769 64.32H329.569V74H330.949ZM344.859 74.24C347.139 74.24 348.639 73.14 349.159 71.1H347.839C347.479 72.38 346.459 73.06 344.879 73.06C342.799 73.06 341.559 71.7 341.459 69.34H349.159V68.66C349.159 65.92 347.379 64.06 344.759 64.06C341.999 64.06 340.119 66.14 340.119 69.16C340.119 72.2 342.019 74.24 344.859 74.24ZM344.759 65.24C346.579 65.24 347.779 66.48 347.779 68.34H341.499C341.739 66.44 342.939 65.24 344.759 65.24ZM352.806 74V59.42H351.426V74H352.806Z" fill="white"/>
<path d="M347.84 127.136L347.658 128.046H349.128L348.54 131H349.506L350.08 128.046H352.544L351.956 131H352.922L353.51 128.046H355.064L355.232 127.136H353.678L354.14 124.84H355.61L355.792 123.93H354.308L354.896 120.976H353.93L353.342 123.93H350.892L351.466 120.976H350.514L349.926 123.93H348.218L348.05 124.84H349.758L349.296 127.136H347.84ZM350.262 127.136L350.71 124.84H353.174L352.712 127.136H350.262ZM358.463 131V128.97L359.779 127.612L361.935 131H363.055L360.437 126.926L363.041 124.224H361.823L358.463 127.724V120.794H357.497V131H358.463ZM363.747 127.416C363.747 129.264 364.923 130.79 366.855 130.79C368.017 130.79 368.955 130.23 369.417 129.278V130.888C369.417 132.302 368.493 133.24 367.107 133.24C365.889 133.24 365.049 132.596 364.839 131.504H363.873C364.139 133.142 365.357 134.122 367.093 134.122C369.081 134.122 370.369 132.806 370.369 130.79V124.224H369.529L369.431 125.582C368.997 124.588 368.101 124.042 366.925 124.042C364.937 124.042 363.747 125.568 363.747 127.416ZM364.713 127.402C364.713 126.03 365.553 124.896 367.009 124.896C368.493 124.896 369.333 125.96 369.333 127.402C369.333 128.858 368.465 129.922 366.995 129.922C365.567 129.922 364.713 128.788 364.713 127.402Z" fill="white"/>
<path d="M1015.2 189.48L1014.94 190.78H1017.04L1016.2 195H1017.58L1018.4 190.78H1021.92L1021.08 195H1022.46L1023.3 190.78H1025.52L1025.76 189.48H1023.54L1024.2 186.2H1026.3L1026.56 184.9H1024.44L1025.28 180.68H1023.9L1023.06 184.9H1019.56L1020.38 180.68H1019.02L1018.18 184.9H1015.74L1015.5 186.2H1017.94L1017.28 189.48H1015.2ZM1018.66 189.48L1019.3 186.2H1022.82L1022.16 189.48H1018.66ZM1033 195.24C1035.28 195.24 1036.78 194.14 1037.3 192.1H1035.98C1035.62 193.38 1034.6 194.06 1033.02 194.06C1030.94 194.06 1029.7 192.7 1029.6 190.34H1037.3V189.66C1037.3 186.92 1035.52 185.06 1032.9 185.06C1030.14 185.06 1028.26 187.14 1028.26 190.16C1028.26 193.2 1030.16 195.24 1033 195.24ZM1032.9 186.24C1034.72 186.24 1035.92 187.48 1035.92 189.34H1029.64C1029.88 187.44 1031.08 186.24 1032.9 186.24ZM1038.82 190.18C1038.82 193.22 1040.68 195.24 1043.42 195.24C1045.62 195.24 1047.34 193.94 1047.8 191.96H1046.4C1046.02 193.2 1044.86 194 1043.42 194C1041.46 194 1040.18 192.46 1040.18 190.16C1040.18 187.78 1041.56 186.28 1043.52 186.28C1044.86 186.28 1046.02 187.02 1046.38 188.36H1047.76C1047.38 186.36 1045.74 185.06 1043.5 185.06C1040.68 185.06 1038.82 187.14 1038.82 190.18ZM1049.21 190.16C1049.21 193.1 1051.29 195.24 1054.13 195.24C1056.97 195.24 1059.05 193.1 1059.05 190.16C1059.05 187.2 1056.97 185.06 1054.13 185.06C1051.29 185.06 1049.21 187.2 1049.21 190.16ZM1050.61 190.14C1050.61 187.9 1052.05 186.3 1054.13 186.3C1056.19 186.3 1057.65 187.9 1057.65 190.14C1057.65 192.42 1056.19 194 1054.13 194C1052.05 194 1050.61 192.42 1050.61 190.14Z" fill="white"/>
<circle cx="976" cy="199" r="25" fill="#21CF84"/>
<path d="M963.84 200.136L963.658 201.046H965.128L964.54 204H965.506L966.08 201.046H968.544L967.956 204H968.922L969.51 201.046H971.064L971.232 200.136H969.678L970.14 197.84H971.61L971.792 196.93H970.308L970.896 193.976H969.93L969.342 196.93H966.892L967.466 193.976H966.514L965.926 196.93H964.218L964.05 197.84H965.758L965.296 200.136H963.84ZM966.262 200.136L966.71 197.84H969.174L968.712 200.136H966.262ZM974.463 204V201.97L975.779 200.612L977.935 204H979.055L976.437 199.926L979.041 197.224H977.823L974.463 200.724V193.794H973.497V204H974.463ZM979.747 200.416C979.747 202.264 980.923 203.79 982.855 203.79C984.017 203.79 984.955 203.23 985.417 202.278V203.888C985.417 205.302 984.493 206.24 983.107 206.24C981.889 206.24 981.049 205.596 980.839 204.504H979.873C980.139 206.142 981.357 207.122 983.093 207.122C985.081 207.122 986.369 205.806 986.369 203.79V197.224H985.529L985.431 198.582C984.997 197.588 984.101 197.042 982.925 197.042C980.937 197.042 979.747 198.568 979.747 200.416ZM980.713 200.402C980.713 199.03 981.553 197.896 983.009 197.896C984.493 197.896 985.333 198.96 985.333 200.402C985.333 201.858 984.465 202.922 982.995 202.922C981.567 202.922 980.713 201.788 980.713 200.402Z" fill="white"/>
</svg>
