<?xml version="1.0" encoding="UTF-8" standalone="no"?>
<svg
   width="449"
   height="220"
   viewBox="0 0 449 220"
   fill="none"
   version="1.1"
   id="svg50"
   sodipodi:docname="bolas con hashtags.svg"
   inkscape:version="1.2.1 (9c6d41e410, 2022-07-14, custom)"
   xmlns:inkscape="http://www.inkscape.org/namespaces/inkscape"
   xmlns:sodipodi="http://sodipodi.sourceforge.net/DTD/sodipodi-0.dtd"
   xmlns="http://www.w3.org/2000/svg"
   xmlns:svg="http://www.w3.org/2000/svg">
  <defs
     id="defs54" />
  <sodipodi:namedview
     id="namedview52"
     pagecolor="#ffffff"
     bordercolor="#000000"
     borderopacity="0.25"
     inkscape:showpageshadow="2"
     inkscape:pageopacity="0.0"
     inkscape:pagecheckerboard="0"
     inkscape:deskcolor="#d1d1d1"
     showgrid="false"
     inkscape:zoom="0.97285714"
     inkscape:cx="203.52423"
     inkscape:cy="108.95742"
     inkscape:window-width="1908"
     inkscape:window-height="1068"
     inkscape:window-x="0"
     inkscape:window-y="0"
     inkscape:window-maximized="1"
     inkscape:current-layer="svg50" />
  <ellipse
     cx="87.5"
     cy="183"
     rx="37.5"
     ry="37"
     fill="#7b61ff"
     id="ellipse4" />
  <circle
     cx="112.5"
     cy="74.5"
     r="74.5"
     fill="#f1889f"
     id="circle8" />
  <circle
     cx="389.5"
     cy="64.5"
     r="59.5"
     fill="#ffa755"
     id="circle16" />
  <ellipse
     cx="261"
     cy="133.5"
     rx="87"
     ry="86.5"
     fill="#21cf84"
     id="ellipse20" />
  <path
     d="m 69.920001,75.168 -0.42,2.08 h 3.36 l -1.34,6.752 h 2.21 l 1.31,-6.752 h 5.63 l -1.34,6.752 h 2.21 l 1.34,-6.752 h 3.55 l 0.39,-2.08 h -3.56 l 1.06,-5.248 h 3.36 l 0.42,-2.08 h -3.4 l 1.35,-6.752 h -2.21 l -1.34,6.752 h -5.6 l 1.31,-6.752 h -2.18 l -1.34,6.752 h -3.91 l -0.38,2.08 h 3.9 l -1.05,5.248 z m 5.54,0 1.02,-5.248 h 5.63 l -1.05,5.248 z m 15.13,4.48 c 0,2.88 2.17,4.736 5.659995,4.736 3.52,0 5.890004,-1.824 5.890004,-4.608 0,-2.24 -1.22,-3.488 -3.910004,-4.16 l -2.649995,-0.672 c -1.7,-0.416 -2.53,-1.248 -2.53,-2.432 0,-1.664 1.22,-2.592 3.389995,-2.592 2.08,0 3.33,1.056 3.39,2.848 H 101.98 c -0.1,-2.88 -2.210004,-4.672 -5.470004,-4.672 -3.329995,0 -5.599995,1.728 -5.599995,4.448 0,2.112 1.31,3.52 4,4.192 l 2.649995,0.672 c 1.83,0.448 2.470004,1.184 2.470004,2.464 0,1.664 -1.410004,2.688 -3.810004,2.688 -2.179995,0 -3.519995,-1.12 -3.519995,-2.912 z M 110.22,84.384 c 2.62,0 4.74,-1.152 5.7,-3.104 L 116.2,84 h 1.86 V 73.984 c 0,-4.096 -2.62,-5.888 -6.21,-5.888 -3.81,0 -6.37,2.016 -6.37,5.152 h 2.02 c 0,-2.08 1.6,-3.296 4.29,-3.296 2.27,0 4.09,0.96 4.09,4 v 0.512 l -5.12,0.416 c -3.61,0.288 -5.79,2.08 -5.79,4.928 0,2.72 1.95,4.576 5.25,4.576 z m 0.51,-1.792 c -2.11,0 -3.52,-0.96 -3.52,-2.848 0,-1.728 1.19,-3.008 4.1,-3.264 l 4.57,-0.352 v 0.832 c 0,3.36 -1.88,5.632 -5.15,5.632 z M 124.7,84 v -8.096 c 0,-3.488 1.79,-5.792 4.96,-5.792 2.56,0 4.19,1.28 4.19,4.896 V 84 h 2.21 v -9.472 c 0,-3.904 -1.76,-6.432 -6.02,-6.432 -2.24,0 -4.28,1.12 -5.31,3.104 l -0.32,-2.688 h -1.92 V 84 Z m 14.67,-7.744 c 0,4.704 3.33,8.128 7.87,8.128 4.55,0 7.88,-3.424 7.88,-8.128 0,-4.736 -3.33,-8.16 -7.88,-8.16 -4.54,0 -7.87,3.424 -7.87,8.16 z m 2.24,-0.032 c 0,-3.584 2.31,-6.144 5.63,-6.144 3.3,0 5.64,2.56 5.64,6.144 0,3.648 -2.34,6.176 -5.64,6.176 -3.32,0 -5.63,-2.528 -5.63,-6.176 z"
     fill="#ffffff"
     id="path26" />
  <path
     d="m 196.16,137.064 -0.47,2.34 h 3.78 L 197.96,147 h 2.48 l 1.48,-7.596 h 6.34 L 206.74,147 h 2.49 l 1.51,-7.596 h 4 l 0.43,-2.34 h -4 l 1.19,-5.904 h 3.78 l 0.47,-2.34 h -3.82 l 1.51,-7.596 h -2.48 l -1.51,7.596 h -6.3 l 1.47,-7.596 h -2.44 l -1.52,7.596 h -4.39 l -0.43,2.34 h 4.39 l -1.19,5.904 z m 6.23,0 1.15,-5.904 h 6.34 l -1.19,5.904 z m 27.6,-7.704 c -0.61,-0.144 -1.08,-0.18 -1.62,-0.18 -2.45,0 -4.28,1.224 -4.97,3.096 l -0.18,-2.7 h -2.34 V 147 h 2.49 v -9.936 c 0,-3.312 2.05,-5.472 5.25,-5.472 h 1.37 z m 13.4,-6.084 h -2.59 l -2.16,4.284 h 2.02 z m -5.79,24.156 c 2.95,0 5.32,-1.296 6.4,-3.492 l 0.33,3.06 h 2.09 v -11.268 c 0,-4.608 -2.96,-6.624 -6.99,-6.624 -4.28,0 -7.16,2.268 -7.16,5.796 h 2.27 c 0,-2.34 1.8,-3.708 4.82,-3.708 2.56,0 4.61,1.08 4.61,4.5 v 0.576 l -5.76,0.468 c -4.07,0.324 -6.52,2.34 -6.52,5.544 0,3.06 2.2,5.148 5.91,5.148 z m 0.57,-2.016 c -2.37,0 -3.96,-1.08 -3.96,-3.204 0,-1.944 1.33,-3.384 4.61,-3.672 l 5.15,-0.396 v 0.936 c 0,3.78 -2.13,6.336 -5.8,6.336 z m 13.23,9.18 h 2.48 v -10.944 c 1.23,2.52 3.57,3.78 6.52,3.78 5.15,0 8.06,-3.96 8.06,-9.216 0,-5.256 -3.02,-9.108 -8.06,-9.108 -2.92,0 -5.36,1.296 -6.59,3.996 l -0.25,-3.528 h -2.16 z m 2.52,-16.308 c 0,-4.032 2.23,-6.912 6.05,-6.912 3.78,0 5.97,2.88 5.97,6.912 0,3.996 -2.19,6.912 -5.97,6.912 -3.82,0 -6.05,-2.916 -6.05,-6.912 z m 19.73,-13.5 c 1.01,0 1.87,-0.828 1.87,-1.836 0,-1.008 -0.86,-1.872 -1.87,-1.872 -1.01,0 -1.84,0.864 -1.84,1.872 0,1.008 0.83,1.836 1.84,1.836 z M 272.42,147 h 2.49 v -17.424 h -2.49 z m 14.51,0.432 c 2.91,0 5.36,-1.296 6.59,-3.996 l 0.25,3.564 h 2.16 v -26.244 h -2.49 v 12.132 c -1.22,-2.52 -3.52,-3.78 -6.4,-3.78 -5.19,0 -8.18,3.96 -8.18,9.216 0,5.22 2.99,9.108 8.07,9.108 z m 0.43,-2.268 c -3.78,0 -5.98,-2.88 -5.98,-6.912 0,-3.996 2.2,-6.912 5.98,-6.912 3.82,0 6.05,2.916 6.05,6.912 0,4.032 -2.23,6.912 -6.05,6.912 z m 12.53,-6.876 c 0,5.292 3.74,9.144 8.85,9.144 5.12,0 8.86,-3.852 8.86,-9.144 0,-5.328 -3.74,-9.18 -8.86,-9.18 -5.11,0 -8.85,3.852 -8.85,9.18 z m 2.52,-0.036 c 0,-4.032 2.59,-6.912 6.33,-6.912 3.71,0 6.34,2.88 6.34,6.912 0,4.104 -2.63,6.948 -6.34,6.948 -3.74,0 -6.33,-2.844 -6.33,-6.948 z"
     fill="#ffffff"
     id="path34" />
  <path
     d="m 347.44,66.376 -0.31,1.56 h 2.52 L 348.64,73 h 1.66 l 0.98,-5.064 h 4.22 l -1,5.064 h 1.65 l 1.01,-5.064 h 2.66 l 0.29,-1.56 h -2.66 l 0.79,-3.936 h 2.52 l 0.31,-1.56 h -2.54 l 1.01,-5.064 h -1.66 l -1.01,5.064 h -4.2 l 0.99,-5.064 h -1.64 l -1,5.064 h -2.93 l -0.29,1.56 h 2.93 l -0.79,3.936 z m 4.15,0 0.77,-3.936 h 4.22 l -0.79,3.936 z m 11.54,0.48 c 0,3.168 2.02,5.784 5.33,5.784 1.99,0 3.6,-0.96 4.39,-2.592 v 2.76 c 0,2.424 -1.58,4.032 -3.96,4.032 -2.09,0 -3.53,-1.104 -3.89,-2.976 h -1.65 c 0.45,2.808 2.54,4.488 5.52,4.488 3.41,0 5.61,-2.256 5.61,-5.712 V 61.384 h -1.44 l -0.16,2.328 c -0.75,-1.704 -2.28,-2.64 -4.3,-2.64 -3.41,0 -5.45,2.616 -5.45,5.784 z m 1.66,-0.024 c 0,-2.352 1.44,-4.296 3.93,-4.296 2.55,0 3.99,1.824 3.99,4.296 0,2.496 -1.49,4.32 -4.01,4.32 -2.45,0 -3.91,-1.944 -3.91,-4.32 z m 19.22,-5.592 c -0.41,-0.096 -0.72,-0.12 -1.08,-0.12 -1.63,0 -2.86,0.816 -3.31,2.064 l -0.12,-1.8 h -1.56 V 73 h 1.65 v -6.624 c 0,-2.208 1.37,-3.648 3.51,-3.648 h 0.91 z m 5.07,12.048 c 1.97,0 3.55,-0.864 4.27,-2.328 l 0.22,2.04 h 1.39 v -7.512 c 0,-3.072 -1.97,-4.416 -4.66,-4.416 -2.85,0 -4.77,1.512 -4.77,3.864 h 1.51 c 0,-1.56 1.2,-2.472 3.22,-2.472 1.7,0 3.07,0.72 3.07,3 v 0.384 l -3.84,0.312 c -2.71,0.216 -4.35,1.56 -4.35,3.696 0,2.04 1.47,3.432 3.94,3.432 z m 0.38,-1.344 c -1.58,0 -2.64,-0.72 -2.64,-2.136 0,-1.296 0.89,-2.256 3.08,-2.448 l 3.43,-0.264 v 0.624 c 0,2.52 -1.42,4.224 -3.87,4.224 z M 399.94,73 v -6.072 c 0,-2.616 1.34,-4.344 3.72,-4.344 1.92,0 3.14,0.96 3.14,3.672 V 73 h 1.66 v -7.104 c 0,-2.928 -1.32,-4.824 -4.51,-4.824 -1.68,0 -3.22,0.84 -3.99,2.328 l -0.24,-2.016 h -1.44 V 73 Z m 16.69,0.288 c 2.74,0 4.54,-1.32 5.16,-3.768 h -1.58 c -0.43,1.536 -1.66,2.352 -3.55,2.352 -2.5,0 -3.99,-1.632 -4.11,-4.464 h 9.24 v -0.816 c 0,-3.288 -2.13,-5.52 -5.28,-5.52 -3.31,0 -5.57,2.496 -5.57,6.12 0,3.648 2.28,6.096 5.69,6.096 z m -0.12,-10.8 c 2.19,0 3.63,1.488 3.63,3.72 h -7.54 c 0.29,-2.28 1.73,-3.72 3.91,-3.72 z M 426.17,73 V 55.504 h -1.66 V 73 Z"
     fill="#ffffff"
     id="path36" />
  <path
     d="m 64.200001,184.48 -0.26,1.3 h 2.1 l -0.84,4.22 h 1.38 l 0.82,-4.22 h 3.52 l -0.84,4.22 h 1.38 l 0.84,-4.22 h 2.22 l 0.24,-1.3 h -2.22 l 0.66,-3.28 h 2.1 l 0.26,-1.3 h -2.12 l 0.84,-4.22 h -1.38 l -0.84,4.22 h -3.5 l 0.82,-4.22 h -1.36 l -0.84,4.22 h -2.44 l -0.24,1.3 h 2.44 l -0.66,3.28 z m 3.46,0 0.64,-3.28 h 3.52 l -0.66,3.28 z m 14.34,5.76 c 2.28,0 3.78,-1.1 4.3,-3.14 h -1.32 c -0.36,1.28 -1.38,1.96 -2.96,1.96 -2.08,0 -3.32,-1.36 -3.42,-3.72 h 7.7 v -0.68 c 0,-2.74 -1.78,-4.6 -4.4,-4.6 -2.76,0 -4.64,2.08 -4.64,5.1 0,3.04 1.9,5.08 4.74,5.08 z m -0.1,-9 c 1.82,0 3.02,1.24 3.02,3.1 h -6.28 c 0.24,-1.9 1.44,-3.1 3.26,-3.1 z m 5.92,3.94 c 0,3.04 1.86,5.06 4.6,5.06 2.2,0 3.919995,-1.3 4.379995,-3.28 h -1.399995 c -0.38,1.24 -1.54,2.04 -2.98,2.04 -1.96,0 -3.24,-1.54 -3.24,-3.84 0,-2.38 1.38,-3.88 3.34,-3.88 1.34,0 2.5,0.74 2.86,2.08 h 1.379995 c -0.38,-2 -2.019995,-3.3 -4.259995,-3.3 -2.82,0 -4.68,2.08 -4.68,5.12 z m 10.389995,-0.02 c 0,2.94 2.080004,5.08 4.920004,5.08 2.84,0 4.92,-2.14 4.92,-5.08 0,-2.96 -2.08,-5.1 -4.92,-5.1 -2.84,0 -4.920004,2.14 -4.920004,5.1 z m 1.4,-0.02 c 0,-2.24 1.440004,-3.84 3.520004,-3.84 2.06,0 3.52,1.6 3.52,3.84 0,2.28 -1.46,3.86 -3.52,3.86 -2.08,0 -3.520004,-1.58 -3.520004,-3.86 z"
     fill="#ffffff"
     id="path44" />
  <circle
     cx="25"
     cy="194"
     r="25"
     fill="#21cf84"
     id="circle46" />
  <path
     d="m 12.840001,195.136 -0.182,0.91 h 1.47 l -0.588,2.954 h 0.966 l 0.574,-2.954 h 2.464 l -0.588,2.954 h 0.966 l 0.588,-2.954 h 1.554 l 0.168,-0.91 h -1.554 l 0.462,-2.296 h 1.47 l 0.182,-0.91 h -1.484 l 0.588,-2.954 h -0.966 l -0.588,2.954 h -2.45 l 0.574,-2.954 h -0.952 l -0.588,2.954 h -1.708 l -0.168,0.91 h 1.708 l -0.462,2.296 z m 2.422,0 0.448,-2.296 h 2.464 l -0.462,2.296 z m 8.201,3.864 v -2.03 l 1.316,-1.358 2.156,3.388 h 1.12 l -2.618,-4.074 2.604,-2.702 h -1.218 l -3.36,3.5 v -6.93 h -0.966 V 199 Z m 5.284,-3.584 c 0,1.848 1.176,3.374 3.108,3.374 1.162,0 2.1,-0.56 2.562,-1.512 v 1.61 c 0,1.414 -0.924,2.352 -2.31,2.352 -1.218,0 -2.058,-0.644 -2.268,-1.736 h -0.966 c 0.266,1.638 1.484,2.618 3.22,2.618 1.988,0 3.276,-1.316 3.276,-3.332 v -6.566 h -0.84 l -0.098,1.358 c -0.434,-0.994 -1.33,-1.54 -2.506,-1.54 -1.988,0 -3.178,1.526 -3.178,3.374 z m 0.966,-0.014 c 0,-1.372 0.84,-2.506 2.296,-2.506 1.484,0 2.324,1.064 2.324,2.506 0,1.456 -0.868,2.52 -2.338,2.52 -1.428,0 -2.282,-1.134 -2.282,-2.52 z"
     fill="#ffffff"
     id="path48" />
</svg>
