<svg width="456" height="660" viewBox="0 0 456 660" fill="none" xmlns="http://www.w3.org/2000/svg">
<circle cx="361.5" cy="385.5" r="45.5" fill="#FFA755"/>
<circle cx="163.5" cy="498.5" r="43.5" fill="#FFA755"/>
<circle cx="76.5" cy="576.5" r="73.5" fill="#F1889F"/>
<ellipse cx="375" cy="503.5" rx="74" ry="73.5" fill="#F1889F"/>
<circle cx="182" cy="614" r="37" fill="#7B61FF"/>
<circle cx="370" cy="614" r="37" fill="#7B61FF"/>
<circle cx="38" cy="473" r="37" fill="#7B61FF"/>
<circle cx="276" cy="592" r="59" fill="#FFA755"/>
<ellipse cx="231" cy="389.5" rx="86" ry="85.5" fill="#21CF84"/>
<path d="M77.28 589.384C82.08 589.384 85.344 586.12 85.344 581.512C85.344 577.224 82.4 573.8 77.632 573.8C75.84 573.8 74.176 574.376 72.896 575.4L74.624 568.2H84.032V566.088H72.96L70.208 577.608L72.032 578.184C73.28 576.808 75.2 575.848 77.312 575.848C80.928 575.848 83.008 578.376 83.008 581.576C83.008 584.968 80.768 587.272 77.312 587.272C74.048 587.272 72.032 585.288 72.032 581.992H69.728C69.728 586.504 72.672 589.384 77.28 589.384Z" fill="white"/>
<circle cx="200.5" cy="555.5" r="24.5" fill="#21CF84"/>
<path d="M375.28 516.384C380.08 516.384 383.344 513.12 383.344 508.512C383.344 504.224 380.4 500.8 375.632 500.8C373.84 500.8 372.176 501.376 370.896 502.4L372.624 495.2H382.032V493.088H370.96L368.208 504.608L370.032 505.184C371.28 503.808 373.2 502.848 375.312 502.848C378.928 502.848 381.008 505.376 381.008 508.576C381.008 511.968 378.768 514.272 375.312 514.272C372.048 514.272 370.032 512.288 370.032 508.992H367.728C367.728 513.504 370.672 516.384 375.28 516.384Z" fill="white"/>
<path d="M224.44 385C221.76 388.68 220.84 391 220.84 394.32C220.84 400.04 225.36 404.48 231.12 404.48C236.84 404.48 241.28 400.2 241.28 394.32C241.28 388.72 237.32 384.36 231.36 384.36C230.04 384.36 228.8 384.64 227.44 385.32L234.96 375.36H231.6L224.44 385ZM223.76 394.36C223.76 390 226.76 386.88 231.12 386.88C235.36 386.88 238.4 390 238.4 394.36C238.4 398.72 235.36 401.88 231.12 401.88C226.76 401.88 223.76 398.72 223.76 394.36Z" fill="white"/>
<path d="M285.8 600.92V598.36H282.44V578.36H278.6L264.6 598.36V600.92H279.64V607H282.44V600.92H285.8ZM267.72 598.36L279.64 581.32V598.36H267.72Z" fill="white"/>
<path d="M369.1 396.44V394.52H366.58V379.52H363.7L353.2 394.52V396.44H364.48V401H366.58V396.44H369.1ZM355.54 394.52L364.48 381.74V394.52H355.54Z" fill="white"/>
<path d="M171.1 505.44V503.52H168.58V488.52H165.7L155.2 503.52V505.44H166.48V510H168.58V505.44H171.1ZM157.54 503.52L166.48 490.74V503.52H157.54Z" fill="white"/>
<path d="M42.34 481V479.66H35.12L38.46 476.74C41.32 474.24 42.26 472.86 42.26 470.78C42.26 468.16 40.46 466.42 37.76 466.42C34.94 466.42 33.04 468.4 32.96 471.4H34.4C34.46 469.18 35.76 467.74 37.74 467.74C39.64 467.74 40.8 468.92 40.8 470.86C40.8 472.56 40.12 473.56 37.48 475.86L32.9 479.86V481H42.34Z" fill="white"/>
<path d="M200.896 551.584V562H202V550.544H198.56V551.584H200.896Z" fill="white"/>
<circle cx="429.5" cy="422.5" r="24.5" fill="#21CF84"/>
<path d="M187.34 623V621.66H180.12L183.46 618.74C186.32 616.24 187.26 614.86 187.26 612.78C187.26 610.16 185.46 608.42 182.76 608.42C179.94 608.42 178.04 610.4 177.96 613.4H179.4C179.46 611.18 180.76 609.74 182.74 609.74C184.64 609.74 185.8 610.92 185.8 612.86C185.8 614.56 185.12 615.56 182.48 617.86L177.9 621.86V623H187.34Z" fill="white"/>
<path d="M374.34 622V620.66H367.12L370.46 617.74C373.32 615.24 374.26 613.86 374.26 611.78C374.26 609.16 372.46 607.42 369.76 607.42C366.94 607.42 365.04 609.4 364.96 612.4H366.4C366.46 610.18 367.76 608.74 369.74 608.74C371.64 608.74 372.8 609.92 372.8 611.86C372.8 613.56 372.12 614.56 369.48 616.86L364.9 620.86V622H374.34Z" fill="white"/>
<path d="M429.896 418.584V429H431V417.544H427.56V418.584H429.896Z" fill="white"/>
<path d="M0.5 120C0.5 103.708 13.7076 90.5 30 90.5H426C442.292 90.5 455.5 103.708 455.5 120V640C455.5 650.77 446.77 659.5 436 659.5H20C9.23045 659.5 0.5 650.77 0.5 640V120Z" stroke="#888888"/>
<path d="M69.5 18.5H386.5V90.5H69.5V18.5Z" fill="#F8F3ED" stroke="#888888"/>
<rect x="52.5" y="0.5" width="350" height="59" rx="11.5" fill="#F8F3ED" stroke="#888888"/>
</svg>
